<svg width="366" height="283" viewBox="0 0 366 283" fill="none" xmlns="http://www.w3.org/2000/svg">
<path d="M18.9731 243.786H365.973" stroke="#CCCCCC" stroke-dasharray="4 2"/>
<path d="M19.3872 7.29102V244.062" stroke="#CCCCCC" stroke-dasharray="4 2"/>
<path d="M9.58992 242.195V244.363C9.58992 245.529 9.48576 246.512 9.27742 247.312C9.06909 248.113 8.76961 248.758 8.37899 249.246C7.98836 249.734 7.51636 250.089 6.96297 250.311C6.41609 250.525 5.79761 250.633 5.1075 250.633C4.56063 250.633 4.05607 250.564 3.59383 250.428C3.13159 250.291 2.71492 250.073 2.34383 249.773C1.97925 249.467 1.66675 249.07 1.40633 248.582C1.14591 248.094 0.947345 247.501 0.810626 246.805C0.673907 246.108 0.605548 245.294 0.605548 244.363V242.195C0.605548 241.03 0.709715 240.053 0.918048 239.266C1.13289 238.478 1.43563 237.846 1.82625 237.371C2.21688 236.889 2.68563 236.544 3.2325 236.336C3.78589 236.128 4.40438 236.023 5.08797 236.023C5.64136 236.023 6.14917 236.092 6.61141 236.229C7.08016 236.359 7.49682 236.57 7.86141 236.863C8.22599 237.15 8.53524 237.534 8.78914 238.016C9.04956 238.491 9.24813 239.074 9.38484 239.764C9.52156 240.454 9.58992 241.264 9.58992 242.195ZM7.77352 244.656V241.893C7.77352 241.255 7.73445 240.695 7.65633 240.213C7.58471 239.725 7.47729 239.308 7.33406 238.963C7.19083 238.618 7.00854 238.338 6.78719 238.123C6.57234 237.908 6.32169 237.752 6.03524 237.654C5.75529 237.55 5.43953 237.498 5.08797 237.498C4.65828 237.498 4.27742 237.579 3.94539 237.742C3.61336 237.898 3.33341 238.149 3.10555 238.494C2.88419 238.839 2.71492 239.292 2.59774 239.852C2.48055 240.411 2.42195 241.092 2.42195 241.893V244.656C2.42195 245.294 2.45776 245.857 2.52938 246.346C2.6075 246.834 2.72143 247.257 2.87117 247.615C3.02091 247.967 3.2032 248.257 3.41805 248.484C3.63289 248.712 3.88029 248.882 4.16024 248.992C4.44669 249.096 4.76245 249.148 5.1075 249.148C5.55021 249.148 5.93758 249.064 6.26961 248.895C6.60164 248.725 6.87833 248.462 7.09969 248.104C7.32755 247.739 7.49682 247.273 7.6075 246.707C7.71818 246.134 7.77352 245.451 7.77352 244.656Z" fill="white"/>
<path d="M6.60164 177.086V191.383H4.795V179.342L1.15242 180.67V179.039L6.31844 177.086H6.60164Z" fill="white"/>
<path d="M9.98055 130.845V132.329H0.673907V131.03L5.33211 125.845C5.90503 125.207 6.34774 124.666 6.66024 124.224C6.97925 123.774 7.2006 123.374 7.3243 123.022C7.45451 122.664 7.51961 122.3 7.51961 121.929C7.51961 121.46 7.42195 121.037 7.22664 120.659C7.03784 120.275 6.75789 119.969 6.3868 119.741C6.0157 119.513 5.56649 119.399 5.03914 119.399C4.40763 119.399 3.88029 119.523 3.45711 119.771C3.04044 120.011 2.72794 120.35 2.51961 120.786C2.31128 121.222 2.20711 121.724 2.20711 122.29H0.40047C0.40047 121.489 0.576251 120.757 0.927814 120.093C1.27938 119.429 1.80021 118.901 2.49031 118.511C3.18042 118.114 4.03003 117.915 5.03914 117.915C5.93758 117.915 6.70581 118.075 7.34383 118.394C7.98185 118.706 8.47013 119.149 8.80867 119.722C9.15372 120.288 9.32625 120.952 9.32625 121.714C9.32625 122.131 9.25464 122.554 9.11141 122.983C8.97469 123.407 8.78263 123.83 8.53524 124.253C8.29435 124.676 8.01115 125.093 7.68563 125.503C7.36662 125.913 7.02482 126.317 6.66024 126.714L2.85164 130.845H9.98055Z" fill="white"/>
<path d="M3.30086 65.2764H4.58992C5.22143 65.2764 5.74227 65.1722 6.15242 64.9639C6.56909 64.749 6.87833 64.4593 7.08016 64.0947C7.28849 63.7236 7.39266 63.307 7.39266 62.8447C7.39266 62.2979 7.30151 61.8389 7.11922 61.4678C6.93693 61.0967 6.66349 60.8167 6.29891 60.6279C5.93432 60.4391 5.47208 60.3447 4.91219 60.3447C4.40438 60.3447 3.95516 60.4456 3.56453 60.6475C3.18042 60.8428 2.87768 61.1227 2.65633 61.4873C2.44149 61.8519 2.33406 62.2816 2.33406 62.7764H0.527423C0.527423 62.0537 0.709715 61.3962 1.0743 60.8037C1.43888 60.2113 1.94995 59.7393 2.6075 59.3877C3.27156 59.0361 4.03979 58.8604 4.91219 58.8604C5.77156 58.8604 6.52352 59.0133 7.16805 59.3193C7.81258 59.6188 8.31388 60.068 8.67195 60.667C9.03003 61.2594 9.20906 61.9984 9.20906 62.8838C9.20906 63.2419 9.12443 63.626 8.95516 64.0361C8.7924 64.4398 8.53524 64.8174 8.18367 65.1689C7.83862 65.5205 7.3894 65.8102 6.83602 66.0381C6.28263 66.2594 5.61857 66.3701 4.84383 66.3701H3.30086V65.2764ZM3.30086 66.7607V65.6768H4.84383C5.74878 65.6768 6.49747 65.7842 7.08992 65.999C7.68237 66.2139 8.14787 66.5003 8.48641 66.8584C8.83146 67.2165 9.07234 67.6104 9.20906 68.04C9.35229 68.4632 9.42391 68.8864 9.42391 69.3096C9.42391 69.9736 9.30997 70.5628 9.08211 71.0771C8.86076 71.5915 8.545 72.0277 8.13484 72.3857C7.7312 72.7438 7.25594 73.014 6.70906 73.1963C6.16219 73.3786 5.56649 73.4697 4.92195 73.4697C4.30346 73.4697 3.72078 73.3818 3.17391 73.2061C2.63354 73.0303 2.15503 72.7764 1.73836 72.4443C1.32169 72.1058 0.996173 71.6924 0.761798 71.2041C0.527423 70.7093 0.410235 70.1462 0.410235 69.5146H2.21688C2.21688 70.0094 2.3243 70.4424 2.53914 70.8135C2.7605 71.1846 3.073 71.4743 3.47664 71.6826C3.8868 71.8844 4.36857 71.9854 4.92195 71.9854C5.47534 71.9854 5.9506 71.891 6.34774 71.7021C6.75138 71.5068 7.06063 71.2139 7.27547 70.8232C7.49682 70.4326 7.6075 69.9411 7.6075 69.3486C7.6075 68.7562 7.4838 68.2712 7.23641 67.8936C6.98901 67.5094 6.63745 67.2262 6.18172 67.0439C5.7325 66.8551 5.2019 66.7607 4.58992 66.7607H3.30086Z" fill="white"/>
<path d="M10.2735 9.43359V10.918H7.9155e-05V9.85352L6.36727 0H7.84188L6.25984 2.85156L2.05086 9.43359H10.2735ZM8.29109 0V14.2188H6.48445V0H8.29109Z" fill="white"/>
<path d="M85.8247 273.809V276.246H74.27V274.16L79.813 268.172C80.3911 267.516 80.8481 266.945 81.1841 266.461C81.52 265.977 81.7583 265.539 81.8989 265.148C82.0474 264.75 82.1216 264.371 82.1216 264.012C82.1216 263.488 82.0278 263.031 81.8403 262.641C81.6528 262.242 81.3794 261.934 81.02 261.715C80.6685 261.496 80.2349 261.387 79.7192 261.387C79.1489 261.387 78.6606 261.52 78.2544 261.785C77.856 262.043 77.5513 262.402 77.3403 262.863C77.1372 263.324 77.0356 263.852 77.0356 264.445H73.9302C73.9302 263.438 74.1645 262.52 74.6333 261.691C75.102 260.855 75.7739 260.188 76.6489 259.688C77.5239 259.188 78.563 258.938 79.7661 258.938C80.938 258.938 81.9302 259.133 82.7427 259.523C83.5552 259.906 84.1724 260.453 84.5942 261.164C85.0161 261.875 85.227 262.723 85.227 263.707C85.227 264.254 85.1372 264.793 84.9575 265.324C84.7778 265.855 84.5239 266.383 84.1958 266.906C83.8755 267.422 83.4927 267.945 83.0474 268.477C82.602 269.008 82.106 269.551 81.5591 270.105L78.231 273.809H85.8247ZM99.2778 266.25V269.121C99.2778 270.434 99.145 271.555 98.8794 272.484C98.6138 273.414 98.231 274.176 97.731 274.77C97.231 275.355 96.6333 275.789 95.938 276.07C95.2427 276.344 94.4692 276.48 93.6177 276.48C92.938 276.48 92.3052 276.395 91.7192 276.223C91.1333 276.043 90.606 275.77 90.1372 275.402C89.6763 275.027 89.2778 274.551 88.9419 273.973C88.6138 273.395 88.3599 272.703 88.1802 271.898C88.0083 271.094 87.9224 270.168 87.9224 269.121V266.25C87.9224 264.938 88.0552 263.82 88.3208 262.898C88.5942 261.977 88.981 261.223 89.481 260.637C89.981 260.051 90.5786 259.625 91.2739 259.359C91.9692 259.086 92.7427 258.949 93.5942 258.949C94.2817 258.949 94.9145 259.035 95.4927 259.207C96.0786 259.379 96.602 259.648 97.063 260.016C97.5317 260.375 97.9302 260.844 98.2583 261.422C98.5864 261.992 98.8364 262.68 99.0083 263.484C99.188 264.281 99.2778 265.203 99.2778 266.25ZM96.1841 269.543V265.816C96.1841 265.16 96.145 264.59 96.0669 264.105C95.9966 263.613 95.8911 263.195 95.7505 262.852C95.6099 262.508 95.4341 262.23 95.2231 262.02C95.0122 261.801 94.77 261.641 94.4966 261.539C94.2231 261.438 93.9224 261.387 93.5942 261.387C93.188 261.387 92.8247 261.469 92.5044 261.633C92.1841 261.789 91.9145 262.039 91.6958 262.383C91.477 262.727 91.3091 263.184 91.1919 263.754C91.0825 264.316 91.0278 265.004 91.0278 265.816V269.543C91.0278 270.199 91.063 270.773 91.1333 271.266C91.2114 271.758 91.3208 272.18 91.4614 272.531C91.6099 272.883 91.7856 273.172 91.9888 273.398C92.1997 273.617 92.4419 273.781 92.7153 273.891C92.9888 273.992 93.2895 274.043 93.6177 274.043C94.0317 274.043 94.395 273.961 94.7075 273.797C95.0278 273.633 95.2974 273.375 95.5161 273.023C95.7349 272.664 95.8989 272.199 96.0083 271.629C96.1255 271.051 96.1841 270.355 96.1841 269.543ZM109.661 259.137V276.246H106.555V262.758L102.442 264.117V261.609L109.309 259.137H109.661ZM126.864 259.184V260.871L120.161 276.246H116.891L123.594 261.621H114.922V259.184H126.864Z" fill="white"/>
<path d="M189.075 273.809V276.246H177.52V274.16L183.063 268.172C183.641 267.516 184.098 266.945 184.434 266.461C184.77 265.977 185.008 265.539 185.149 265.148C185.297 264.75 185.372 264.371 185.372 264.012C185.372 263.488 185.278 263.031 185.09 262.641C184.903 262.242 184.629 261.934 184.27 261.715C183.918 261.496 183.485 261.387 182.969 261.387C182.399 261.387 181.911 261.52 181.504 261.785C181.106 262.043 180.801 262.402 180.59 262.863C180.387 263.324 180.286 263.852 180.286 264.445H177.18C177.18 263.438 177.415 262.52 177.883 261.691C178.352 260.855 179.024 260.188 179.899 259.688C180.774 259.188 181.813 258.938 183.016 258.938C184.188 258.938 185.18 259.133 185.993 259.523C186.805 259.906 187.422 260.453 187.844 261.164C188.266 261.875 188.477 262.723 188.477 263.707C188.477 264.254 188.387 264.793 188.208 265.324C188.028 265.855 187.774 266.383 187.446 266.906C187.125 267.422 186.743 267.945 186.297 268.477C185.852 269.008 185.356 269.551 184.809 270.105L181.481 273.809H189.075ZM202.528 266.25V269.121C202.528 270.434 202.395 271.555 202.129 272.484C201.864 273.414 201.481 274.176 200.981 274.77C200.481 275.355 199.883 275.789 199.188 276.07C198.493 276.344 197.719 276.48 196.868 276.48C196.188 276.48 195.555 276.395 194.969 276.223C194.383 276.043 193.856 275.77 193.387 275.402C192.926 275.027 192.528 274.551 192.192 273.973C191.864 273.395 191.61 272.703 191.43 271.898C191.258 271.094 191.172 270.168 191.172 269.121V266.25C191.172 264.938 191.305 263.82 191.571 262.898C191.844 261.977 192.231 261.223 192.731 260.637C193.231 260.051 193.829 259.625 194.524 259.359C195.219 259.086 195.993 258.949 196.844 258.949C197.532 258.949 198.165 259.035 198.743 259.207C199.329 259.379 199.852 259.648 200.313 260.016C200.782 260.375 201.18 260.844 201.508 261.422C201.836 261.992 202.086 262.68 202.258 263.484C202.438 264.281 202.528 265.203 202.528 266.25ZM199.434 269.543V265.816C199.434 265.16 199.395 264.59 199.317 264.105C199.247 263.613 199.141 263.195 199 262.852C198.86 262.508 198.684 262.23 198.473 262.02C198.262 261.801 198.02 261.641 197.747 261.539C197.473 261.438 197.172 261.387 196.844 261.387C196.438 261.387 196.075 261.469 195.754 261.633C195.434 261.789 195.165 262.039 194.946 262.383C194.727 262.727 194.559 263.184 194.442 263.754C194.333 264.316 194.278 265.004 194.278 265.816V269.543C194.278 270.199 194.313 270.773 194.383 271.266C194.461 271.758 194.571 272.18 194.711 272.531C194.86 272.883 195.036 273.172 195.239 273.398C195.45 273.617 195.692 273.781 195.965 273.891C196.239 273.992 196.54 274.043 196.868 274.043C197.282 274.043 197.645 273.961 197.958 273.797C198.278 273.633 198.547 273.375 198.766 273.023C198.985 272.664 199.149 272.199 199.258 271.629C199.375 271.051 199.434 270.355 199.434 269.543ZM212.911 259.137V276.246H209.805V262.758L205.692 264.117V261.609L212.559 259.137H212.911ZM229.973 271.582C229.973 272.645 229.723 273.543 229.223 274.277C228.731 275.004 228.055 275.555 227.196 275.93C226.344 276.297 225.375 276.48 224.29 276.48C223.211 276.48 222.239 276.297 221.372 275.93C220.512 275.555 219.829 275.004 219.321 274.277C218.821 273.543 218.571 272.645 218.571 271.582C218.571 270.871 218.711 270.227 218.993 269.648C219.282 269.07 219.68 268.574 220.188 268.16C220.696 267.738 221.297 267.418 221.993 267.199C222.688 266.973 223.446 266.859 224.266 266.859C225.36 266.859 226.336 267.059 227.196 267.457C228.063 267.848 228.743 268.398 229.235 269.109C229.727 269.812 229.973 270.637 229.973 271.582ZM226.856 271.395C226.856 270.848 226.747 270.375 226.528 269.977C226.317 269.57 226.016 269.258 225.625 269.039C225.235 268.82 224.782 268.711 224.266 268.711C223.743 268.711 223.286 268.82 222.895 269.039C222.512 269.258 222.211 269.57 221.993 269.977C221.782 270.375 221.676 270.848 221.676 271.395C221.676 271.949 221.782 272.426 221.993 272.824C222.211 273.215 222.516 273.516 222.907 273.727C223.297 273.938 223.758 274.043 224.29 274.043C224.821 274.043 225.278 273.938 225.661 273.727C226.043 273.516 226.336 273.215 226.54 272.824C226.75 272.426 226.856 271.949 226.856 271.395ZM229.598 263.684C229.598 264.543 229.372 265.309 228.918 265.98C228.465 266.645 227.836 267.164 227.032 267.539C226.235 267.914 225.321 268.102 224.29 268.102C223.258 268.102 222.336 267.914 221.524 267.539C220.719 267.164 220.086 266.645 219.625 265.98C219.172 265.309 218.946 264.543 218.946 263.684C218.946 262.668 219.176 261.809 219.637 261.105C220.098 260.395 220.727 259.855 221.524 259.488C222.329 259.121 223.243 258.938 224.266 258.938C225.305 258.938 226.227 259.121 227.032 259.488C227.836 259.855 228.465 260.395 228.918 261.105C229.372 261.809 229.598 262.668 229.598 263.684ZM226.504 263.812C226.504 263.328 226.415 262.906 226.235 262.547C226.055 262.18 225.797 261.895 225.461 261.691C225.133 261.488 224.735 261.387 224.266 261.387C223.813 261.387 223.422 261.484 223.094 261.68C222.766 261.875 222.512 262.156 222.333 262.523C222.153 262.883 222.063 263.312 222.063 263.812C222.063 264.305 222.153 264.734 222.333 265.102C222.512 265.469 222.766 265.758 223.094 265.969C223.43 266.172 223.829 266.273 224.29 266.273C224.75 266.273 225.145 266.172 225.473 265.969C225.801 265.758 226.055 265.469 226.235 265.102C226.415 264.734 226.504 264.305 226.504 263.812Z" fill="white"/>
<path d="M292.325 273.809V276.246H280.77V274.16L286.313 268.172C286.891 267.516 287.348 266.945 287.684 266.461C288.02 265.977 288.258 265.539 288.399 265.148C288.547 264.75 288.622 264.371 288.622 264.012C288.622 263.488 288.528 263.031 288.34 262.641C288.153 262.242 287.879 261.934 287.52 261.715C287.168 261.496 286.735 261.387 286.219 261.387C285.649 261.387 285.161 261.52 284.754 261.785C284.356 262.043 284.051 262.402 283.84 262.863C283.637 263.324 283.536 263.852 283.536 264.445H280.43C280.43 263.438 280.665 262.52 281.133 261.691C281.602 260.855 282.274 260.188 283.149 259.688C284.024 259.188 285.063 258.938 286.266 258.938C287.438 258.938 288.43 259.133 289.243 259.523C290.055 259.906 290.672 260.453 291.094 261.164C291.516 261.875 291.727 262.723 291.727 263.707C291.727 264.254 291.637 264.793 291.458 265.324C291.278 265.855 291.024 266.383 290.696 266.906C290.375 267.422 289.993 267.945 289.547 268.477C289.102 269.008 288.606 269.551 288.059 270.105L284.731 273.809H292.325ZM305.778 266.25V269.121C305.778 270.434 305.645 271.555 305.379 272.484C305.114 273.414 304.731 274.176 304.231 274.77C303.731 275.355 303.133 275.789 302.438 276.07C301.743 276.344 300.969 276.48 300.118 276.48C299.438 276.48 298.805 276.395 298.219 276.223C297.633 276.043 297.106 275.77 296.637 275.402C296.176 275.027 295.778 274.551 295.442 273.973C295.114 273.395 294.86 272.703 294.68 271.898C294.508 271.094 294.422 270.168 294.422 269.121V266.25C294.422 264.938 294.555 263.82 294.821 262.898C295.094 261.977 295.481 261.223 295.981 260.637C296.481 260.051 297.079 259.625 297.774 259.359C298.469 259.086 299.243 258.949 300.094 258.949C300.782 258.949 301.415 259.035 301.993 259.207C302.579 259.379 303.102 259.648 303.563 260.016C304.032 260.375 304.43 260.844 304.758 261.422C305.086 261.992 305.336 262.68 305.508 263.484C305.688 264.281 305.778 265.203 305.778 266.25ZM302.684 269.543V265.816C302.684 265.16 302.645 264.59 302.567 264.105C302.497 263.613 302.391 263.195 302.25 262.852C302.11 262.508 301.934 262.23 301.723 262.02C301.512 261.801 301.27 261.641 300.997 261.539C300.723 261.438 300.422 261.387 300.094 261.387C299.688 261.387 299.325 261.469 299.004 261.633C298.684 261.789 298.415 262.039 298.196 262.383C297.977 262.727 297.809 263.184 297.692 263.754C297.583 264.316 297.528 265.004 297.528 265.816V269.543C297.528 270.199 297.563 270.773 297.633 271.266C297.711 271.758 297.821 272.18 297.961 272.531C298.11 272.883 298.286 273.172 298.489 273.398C298.7 273.617 298.942 273.781 299.215 273.891C299.489 273.992 299.79 274.043 300.118 274.043C300.532 274.043 300.895 273.961 301.208 273.797C301.528 273.633 301.797 273.375 302.016 273.023C302.235 272.664 302.399 272.199 302.508 271.629C302.625 271.051 302.684 270.355 302.684 269.543ZM316.161 259.137V276.246H313.055V262.758L308.942 264.117V261.609L315.809 259.137H316.161ZM324.235 273.844H324.458C325.465 273.844 326.317 273.715 327.012 273.457C327.715 273.199 328.282 272.836 328.711 272.367C329.149 271.891 329.465 271.324 329.661 270.668C329.864 270.004 329.965 269.27 329.965 268.465V265.371C329.965 264.715 329.899 264.141 329.766 263.648C329.633 263.148 329.446 262.73 329.204 262.395C328.969 262.059 328.692 261.809 328.372 261.645C328.051 261.473 327.708 261.387 327.34 261.387C326.934 261.387 326.575 261.48 326.262 261.668C325.95 261.855 325.684 262.113 325.465 262.441C325.254 262.762 325.09 263.133 324.973 263.555C324.864 263.977 324.809 264.422 324.809 264.891C324.809 265.344 324.86 265.777 324.961 266.191C325.071 266.605 325.231 266.973 325.442 267.293C325.661 267.613 325.934 267.867 326.262 268.055C326.59 268.234 326.973 268.324 327.411 268.324C327.825 268.324 328.2 268.246 328.536 268.09C328.879 267.926 329.176 267.711 329.426 267.445C329.676 267.172 329.868 266.871 330 266.543C330.141 266.207 330.219 265.867 330.235 265.523L331.325 265.992C331.325 266.562 331.204 267.125 330.961 267.68C330.727 268.234 330.395 268.738 329.965 269.191C329.543 269.637 329.051 269.996 328.489 270.27C327.926 270.535 327.321 270.668 326.672 270.668C325.868 270.668 325.157 270.52 324.54 270.223C323.922 269.926 323.403 269.516 322.981 268.992C322.567 268.461 322.254 267.852 322.043 267.164C321.833 266.469 321.727 265.727 321.727 264.938C321.727 264.117 321.856 263.348 322.114 262.629C322.372 261.902 322.743 261.266 323.227 260.719C323.719 260.164 324.313 259.73 325.008 259.418C325.704 259.098 326.485 258.938 327.352 258.938C328.25 258.938 329.051 259.113 329.754 259.465C330.458 259.816 331.055 260.305 331.547 260.93C332.04 261.547 332.415 262.277 332.672 263.121C332.938 263.965 333.071 264.887 333.071 265.887V266.977C333.071 268.031 332.965 269.031 332.754 269.977C332.543 270.922 332.219 271.785 331.782 272.566C331.344 273.348 330.786 274.023 330.106 274.594C329.434 275.164 328.629 275.605 327.692 275.918C326.762 276.223 325.7 276.375 324.504 276.375H324.235V273.844Z" fill="white"/>
<path d="M62.6499 104.428H142.65V243.51H62.6499V104.428Z" fill="white"/>
<path d="M162.65 78.4863H242.65V243.509H162.65V78.4863Z" fill="white"/>
<path d="M262.65 41.5088H342.65V243.509H262.65V41.5088Z" fill="#3F8EF7"/>
<path d="M94.1017 91.0459V92.8271H82.9337V91.2686L88.5235 85.0459C89.211 84.2803 89.7423 83.6318 90.1173 83.1006C90.5001 82.5615 90.7657 82.0811 90.9142 81.6592C91.0704 81.2295 91.1485 80.792 91.1485 80.3467C91.1485 79.7842 91.0313 79.2764 90.797 78.8232C90.5704 78.3623 90.2345 77.9951 89.7892 77.7217C89.3438 77.4482 88.8048 77.3115 88.172 77.3115C87.4142 77.3115 86.7813 77.46 86.2735 77.7568C85.7735 78.0459 85.3985 78.4521 85.1485 78.9756C84.8985 79.499 84.7735 80.1006 84.7735 80.7803H82.6056C82.6056 79.8193 82.8165 78.9404 83.2384 78.1436C83.6602 77.3467 84.2852 76.7139 85.1134 76.2451C85.9415 75.7686 86.961 75.5303 88.172 75.5303C89.2501 75.5303 90.172 75.7217 90.9376 76.1045C91.7032 76.4795 92.2892 77.0107 92.6954 77.6982C93.1095 78.3779 93.3165 79.1748 93.3165 80.0889C93.3165 80.5889 93.2306 81.0967 93.0587 81.6123C92.8946 82.1201 92.6642 82.6279 92.3673 83.1357C92.0782 83.6436 91.7384 84.1436 91.3477 84.6357C90.9649 85.1279 90.5548 85.6123 90.1173 86.0889L85.547 91.0459H94.1017ZM96.6915 91.6787C96.6915 91.3115 96.8048 91.0029 97.0313 90.7529C97.2657 90.4951 97.6017 90.3662 98.0392 90.3662C98.4767 90.3662 98.8087 90.4951 99.0352 90.7529C99.2696 91.0029 99.3868 91.3115 99.3868 91.6787C99.3868 92.0381 99.2696 92.3428 99.0352 92.5928C98.8087 92.8428 98.4767 92.9678 98.0392 92.9678C97.6017 92.9678 97.2657 92.8428 97.0313 92.5928C96.8048 92.3428 96.6915 92.0381 96.6915 91.6787ZM105.914 83.2295H107.461C108.219 83.2295 108.844 83.1045 109.336 82.8545C109.836 82.5967 110.207 82.249 110.449 81.8115C110.699 81.3662 110.824 80.8662 110.824 80.3115C110.824 79.6553 110.715 79.1045 110.496 78.6592C110.277 78.2139 109.949 77.8779 109.512 77.6514C109.074 77.4248 108.52 77.3115 107.848 77.3115C107.238 77.3115 106.699 77.4326 106.231 77.6748C105.77 77.9092 105.406 78.2451 105.141 78.6826C104.883 79.1201 104.754 79.6357 104.754 80.2295H102.586C102.586 79.3623 102.805 78.5732 103.242 77.8623C103.68 77.1514 104.293 76.585 105.082 76.1631C105.879 75.7412 106.801 75.5303 107.848 75.5303C108.879 75.5303 109.781 75.7139 110.555 76.0811C111.328 76.4404 111.93 76.9795 112.359 77.6982C112.789 78.4092 113.004 79.2959 113.004 80.3584C113.004 80.7881 112.902 81.249 112.699 81.7412C112.504 82.2256 112.195 82.6787 111.774 83.1006C111.359 83.5225 110.82 83.8701 110.156 84.1436C109.492 84.4092 108.695 84.542 107.766 84.542H105.914V83.2295ZM105.914 85.0107V83.71H107.766C108.852 83.71 109.75 83.8389 110.461 84.0967C111.172 84.3545 111.731 84.6982 112.137 85.1279C112.551 85.5576 112.84 86.0303 113.004 86.5459C113.176 87.0537 113.262 87.5615 113.262 88.0693C113.262 88.8662 113.125 89.5732 112.852 90.1904C112.586 90.8076 112.207 91.3311 111.715 91.7607C111.231 92.1904 110.66 92.5146 110.004 92.7334C109.348 92.9521 108.633 93.0615 107.859 93.0615C107.117 93.0615 106.418 92.9561 105.762 92.7451C105.113 92.5342 104.539 92.2295 104.039 91.8311C103.539 91.4248 103.149 90.9287 102.867 90.3428C102.586 89.749 102.445 89.0732 102.445 88.3154H104.613C104.613 88.9092 104.742 89.4287 105 89.874C105.266 90.3193 105.641 90.667 106.125 90.917C106.617 91.1592 107.195 91.2803 107.859 91.2803C108.524 91.2803 109.094 91.167 109.57 90.9404C110.055 90.7061 110.426 90.3545 110.684 89.8857C110.949 89.417 111.082 88.8271 111.082 88.1162C111.082 87.4053 110.934 86.8232 110.637 86.3701C110.34 85.9092 109.918 85.5693 109.371 85.3506C108.832 85.124 108.195 85.0107 107.461 85.0107H105.914ZM118.992 84.7061L117.258 84.2607L118.113 75.7646H126.867V77.7686H119.953L119.438 82.4092C119.75 82.2295 120.145 82.0615 120.621 81.9053C121.106 81.749 121.66 81.6709 122.285 81.6709C123.074 81.6709 123.781 81.8076 124.406 82.0811C125.031 82.3467 125.563 82.7295 126 83.2295C126.445 83.7295 126.785 84.3311 127.02 85.0342C127.254 85.7373 127.371 86.5225 127.371 87.3896C127.371 88.21 127.258 88.9639 127.031 89.6514C126.813 90.3389 126.481 90.9404 126.035 91.4561C125.59 91.9639 125.027 92.3584 124.348 92.6396C123.676 92.9209 122.883 93.0615 121.969 93.0615C121.281 93.0615 120.629 92.9678 120.012 92.7803C119.402 92.585 118.856 92.292 118.371 91.9014C117.895 91.5029 117.504 91.0107 117.199 90.4248C116.902 89.8311 116.715 89.1357 116.637 88.3389H118.699C118.793 88.9795 118.981 89.5186 119.262 89.9561C119.543 90.3936 119.91 90.7256 120.363 90.9521C120.824 91.1709 121.359 91.2803 121.969 91.2803C122.484 91.2803 122.941 91.1904 123.34 91.0107C123.738 90.8311 124.074 90.5732 124.348 90.2373C124.621 89.9014 124.828 89.4951 124.969 89.0186C125.117 88.542 125.191 88.0068 125.191 87.4131C125.191 86.874 125.117 86.374 124.969 85.9131C124.82 85.4521 124.598 85.0498 124.301 84.7061C124.012 84.3623 123.656 84.0967 123.234 83.9092C122.813 83.7139 122.328 83.6162 121.781 83.6162C121.055 83.6162 120.504 83.7139 120.129 83.9092C119.762 84.1045 119.383 84.3701 118.992 84.7061Z" fill="white"/>
<path d="M191.151 65.6133V67.3945H179.983V65.8359L185.573 59.6133C186.261 58.8477 186.792 58.1992 187.167 57.668C187.55 57.1289 187.816 56.6484 187.964 56.2266C188.12 55.7969 188.198 55.3594 188.198 54.9141C188.198 54.3516 188.081 53.8438 187.847 53.3906C187.62 52.9297 187.284 52.5625 186.839 52.2891C186.394 52.0156 185.855 51.8789 185.222 51.8789C184.464 51.8789 183.831 52.0273 183.323 52.3242C182.823 52.6133 182.448 53.0195 182.198 53.543C181.948 54.0664 181.823 54.668 181.823 55.3477H179.655C179.655 54.3867 179.866 53.5078 180.288 52.7109C180.71 51.9141 181.335 51.2812 182.163 50.8125C182.991 50.3359 184.011 50.0977 185.222 50.0977C186.3 50.0977 187.222 50.2891 187.987 50.6719C188.753 51.0469 189.339 51.5781 189.745 52.2656C190.159 52.9453 190.366 53.7422 190.366 54.6562C190.366 55.1562 190.28 55.6641 190.108 56.1797C189.944 56.6875 189.714 57.1953 189.417 57.7031C189.128 58.2109 188.788 58.7109 188.398 59.2031C188.015 59.6953 187.605 60.1797 187.167 60.6562L182.597 65.6133H191.151ZM193.741 66.2461C193.741 65.8789 193.855 65.5703 194.081 65.3203C194.316 65.0625 194.651 64.9336 195.089 64.9336C195.526 64.9336 195.858 65.0625 196.085 65.3203C196.319 65.5703 196.437 65.8789 196.437 66.2461C196.437 66.6055 196.319 66.9102 196.085 67.1602C195.858 67.4102 195.526 67.5352 195.089 67.5352C194.651 67.5352 194.316 67.4102 194.081 67.1602C193.855 66.9102 193.741 66.6055 193.741 66.2461ZM210.827 50.332V51.5508L203.761 67.3945H201.476L208.53 52.1133H199.296V50.332H210.827ZM215.456 65.5781H215.679C216.929 65.5781 217.944 65.4023 218.726 65.0508C219.507 64.6992 220.108 64.2266 220.53 63.6328C220.952 63.0391 221.241 62.3711 221.398 61.6289C221.554 60.8789 221.632 60.1094 221.632 59.3203V56.707C221.632 55.9336 221.542 55.2461 221.362 54.6445C221.191 54.043 220.948 53.5391 220.636 53.1328C220.331 52.7266 219.983 52.418 219.593 52.207C219.202 51.9961 218.788 51.8906 218.351 51.8906C217.851 51.8906 217.401 51.9922 217.003 52.1953C216.612 52.3906 216.28 52.668 216.007 53.0273C215.741 53.3867 215.538 53.8086 215.398 54.293C215.257 54.7773 215.187 55.3047 215.187 55.875C215.187 56.3828 215.249 56.875 215.374 57.3516C215.499 57.8281 215.691 58.2578 215.948 58.6406C216.206 59.0234 216.526 59.3281 216.909 59.5547C217.3 59.7734 217.757 59.8828 218.28 59.8828C218.765 59.8828 219.218 59.7891 219.64 59.6016C220.069 59.4062 220.448 59.1445 220.776 58.8164C221.112 58.4805 221.378 58.1016 221.573 57.6797C221.776 57.2578 221.894 56.8164 221.925 56.3555H222.956C222.956 57.0039 222.827 57.6445 222.569 58.2773C222.319 58.9023 221.968 59.4727 221.515 59.9883C221.062 60.5039 220.53 60.918 219.921 61.2305C219.312 61.5352 218.648 61.6875 217.929 61.6875C217.085 61.6875 216.355 61.5234 215.737 61.1953C215.12 60.8672 214.612 60.4297 214.214 59.8828C213.823 59.3359 213.53 58.7266 213.335 58.0547C213.148 57.375 213.054 56.6875 213.054 55.9922C213.054 55.1797 213.167 54.418 213.394 53.707C213.62 52.9961 213.956 52.3711 214.401 51.832C214.847 51.2852 215.398 50.8594 216.054 50.5547C216.718 50.25 217.483 50.0977 218.351 50.0977C219.327 50.0977 220.159 50.293 220.847 50.6836C221.534 51.0742 222.093 51.5977 222.523 52.2539C222.96 52.9102 223.28 53.6484 223.483 54.4688C223.687 55.2891 223.788 56.1328 223.788 57V57.7852C223.788 58.668 223.73 59.5664 223.612 60.4805C223.503 61.3867 223.288 62.2539 222.968 63.082C222.655 63.9102 222.198 64.6523 221.597 65.3086C220.995 65.957 220.21 66.4727 219.241 66.8555C218.28 67.2305 217.093 67.418 215.679 67.418H215.456V65.5781Z" fill="white"/>
<path d="M280.879 19.6689H282.801C283.293 19.6689 283.696 19.583 284.008 19.4111C284.329 19.2314 284.567 18.9814 284.723 18.6611C284.879 18.333 284.958 17.9463 284.958 17.501C284.958 17.1572 284.883 16.8408 284.735 16.5518C284.594 16.2627 284.375 16.0322 284.079 15.8604C283.782 15.6807 283.403 15.5908 282.942 15.5908C282.629 15.5908 282.325 15.6572 282.028 15.79C281.731 15.915 281.485 16.0947 281.29 16.3291C281.102 16.5635 281.008 16.8486 281.008 17.1846H277.047C277.047 16.2158 277.313 15.3877 277.844 14.7002C278.383 14.0049 279.09 13.4736 279.965 13.1064C280.848 12.7314 281.797 12.5439 282.813 12.5439C284.024 12.5439 285.086 12.7314 286 13.1064C286.915 13.4736 287.625 14.0205 288.133 14.7471C288.649 15.4658 288.907 16.3564 288.907 17.4189C288.907 18.0049 288.77 18.5557 288.497 19.0713C288.223 19.5869 287.84 20.04 287.348 20.4307C286.856 20.8213 286.278 21.1299 285.614 21.3564C284.958 21.5752 284.239 21.6846 283.458 21.6846H280.879V19.6689ZM280.879 22.6104V20.6416H283.458C284.309 20.6416 285.086 20.7393 285.79 20.9346C286.493 21.1221 287.098 21.4033 287.606 21.7783C288.114 22.1533 288.504 22.6182 288.778 23.1729C289.051 23.7197 289.188 24.3486 289.188 25.0596C289.188 25.8564 289.028 26.5674 288.708 27.1924C288.387 27.8174 287.938 28.3447 287.36 28.7744C286.782 29.2041 286.106 29.5322 285.333 29.7588C284.559 29.9775 283.719 30.0869 282.813 30.0869C282.102 30.0869 281.391 29.9932 280.68 29.8057C279.969 29.6104 279.321 29.3135 278.735 28.915C278.149 28.5088 277.676 27.9932 277.317 27.3682C276.965 26.7354 276.79 25.9814 276.79 25.1064H280.75C280.75 25.4658 280.848 25.7939 281.043 26.0908C281.247 26.3799 281.516 26.6104 281.852 26.7822C282.188 26.9541 282.551 27.04 282.942 27.04C283.426 27.04 283.836 26.9502 284.172 26.7705C284.516 26.583 284.778 26.333 284.958 26.0205C285.137 25.708 285.227 25.3604 285.227 24.9775C285.227 24.3994 285.129 23.9385 284.934 23.5947C284.747 23.251 284.469 23.001 284.102 22.8447C283.743 22.6885 283.309 22.6104 282.801 22.6104H280.879ZM291.52 28.001C291.52 27.4385 291.723 26.9697 292.129 26.5947C292.536 26.2119 293.059 26.0205 293.7 26.0205C294.348 26.0205 294.872 26.2119 295.27 26.5947C295.676 26.9697 295.879 27.4385 295.879 28.001C295.879 28.5635 295.676 29.0361 295.27 29.4189C294.872 29.7939 294.348 29.9814 293.7 29.9814C293.059 29.9814 292.536 29.7939 292.129 29.4189C291.723 29.0361 291.52 28.5635 291.52 28.001ZM310.622 23.1846V26.2314H298.34L298.106 23.8174L304.961 12.79H308.079L304.692 18.333L301.879 23.1846H310.622ZM308.899 12.79V29.8525H304.95V12.79H308.899ZM321.133 12.79V29.8525H317.184V17.2432L313.293 18.3799V15.3799L320.77 12.79H321.133Z" fill="white"/>
<path d="M261.653 71.693L255.814 46.6268L234.111 61.6269L242.989 64.8716C223.818 106.502 166.495 140.971 103.302 140.764C101.343 140.719 100.469 141.66 100.343 142.219C100.059 143.479 101.343 144.718 102.327 144.644C164.321 145.365 231.67 115.512 252.796 68.4625L261.651 71.6987L261.653 71.693Z" fill="url(#paint0_linear_1_247)"/>
<defs>
<linearGradient id="paint0_linear_1_247" x1="222.142" y1="84.056" x2="108.152" y2="141.692" gradientUnits="userSpaceOnUse">
<stop stop-color="#3F8EF7"/>
<stop offset="1" stop-color="#EDF5FE" stop-opacity="0.7"/>
</linearGradient>
</defs>
</svg>
