<svg width="149" height="57" viewBox="0 0 149 57" fill="none" xmlns="http://www.w3.org/2000/svg">
<path d="M111.275 0.0103406C112.156 -0.0467103 113.16 0.126206 113.869 0.681576C114.867 1.46479 115.423 2.7587 115.559 3.99383C116.43 11.8909 102.717 26.741 97.4493 32.6586C96.4547 33.7759 95.5006 34.9268 94.5196 36.0557C93.8119 36.8703 93.0147 37.6362 92.3451 38.4805C91.1517 39.9863 90.3671 43.9607 89.8552 45.9136C89.7498 46.3157 89.4217 46.9245 89.4677 47.3137C89.7435 47.2842 91.2048 44.777 91.5011 44.3259C95.1757 38.805 98.0507 34.6979 103.546 30.7363C108.061 27.4823 115.716 26.2233 114.681 34.4279C114.186 38.3506 108.738 42.1675 105.428 43.6316C104.208 44.1713 102.262 44.7517 101.092 45.5016C100.977 45.6525 100.922 45.7845 100.899 45.9734C100.8 46.7672 101.313 47.6418 101.772 48.2492C102.717 49.5018 104.05 50.5385 105.635 50.7481C106.696 50.8883 107.828 50.8157 108.84 50.4545C113.435 48.8134 119.629 41.4109 122.606 37.5706C123.69 36.1718 125.575 33.3666 126.881 32.3749C127.403 31.9782 128.055 31.6722 128.725 31.7735C129.402 31.8756 129.959 32.3611 130.35 32.9011C130.58 33.2173 130.664 33.7633 130.575 34.1401C130.281 35.3624 129.442 36.5578 128.863 37.6655C127.664 39.9593 125.635 44.1386 125.245 46.6907C125.093 47.6897 124.837 49.2627 125.481 50.1133C125.841 50.5892 126.409 50.8297 126.986 50.8971C130.949 51.3597 134.643 47.3244 136.974 44.581C137.611 43.8321 138.197 42.8037 138.978 42.2066C139.307 41.9552 139.782 41.869 140.184 41.9386C140.616 42.0109 141.002 42.2549 141.254 42.6155C141.548 43.0381 141.633 43.5703 141.534 44.0719C141.065 46.4461 135.797 51.2432 133.722 52.6142C131.454 54.1125 128.554 55.2358 125.806 54.6629C124.301 54.3491 123.038 53.693 122.183 52.3789C120.487 49.7692 121.415 46.3277 122.003 43.5119C119.147 48.0293 112.47 54.4085 106.887 54.797C102.27 55.1183 97.1624 50.7436 96.8977 46.0172C96.6663 41.8876 100.7 41.7842 103.481 40.4141C106.069 39.1397 108.966 37.2236 110.463 34.678C110.917 33.9012 110.89 33.4068 110.838 32.5411C110.634 32.3735 110.271 32.1681 110.036 32.0255C102.686 32.1936 92.9085 47.7868 90.1746 53.8614C89.9162 54.4359 88.7228 56.4615 88.2465 56.6499C82.0884 59.0844 85.2463 48.119 85.8185 45.4465C83.7422 47.7444 81.5123 49.7889 79.1857 51.7306C73.0987 56.8115 65.8263 55.6634 67.7731 46.3238C67.9547 45.4528 68.3116 44.4375 68.435 43.5327C67.6697 44.4502 66.9703 45.4196 66.2146 46.3447C65.2772 47.4919 64.2472 48.6061 63.2151 49.6685C60.9791 51.9704 57.8715 54.6814 54.4866 54.714C53.4114 54.7243 52.1544 54.3849 51.3731 53.609C50.4893 52.7312 50.2235 51.4342 50.2365 50.2292C50.2694 47.1642 51.5947 44.2095 52.7695 41.4311C53.3545 40.0476 54.2346 38.3911 54.2047 36.8582C54.199 36.5667 54.15 36.2343 53.9251 36.0264C53.7548 35.8691 53.5064 35.8373 53.2844 35.8563C49.1401 36.2117 42.5411 48.3847 39.7487 51.6971C39.2793 52.4988 38.3253 53.3849 37.5665 53.902C36.6721 54.5116 35.5284 54.8574 34.4505 54.6509C33.6613 54.4996 32.93 54.1545 32.473 53.4623C29.6427 49.1746 37.8099 38.0595 38.7146 33.3292C38.8155 32.8017 38.8908 32.076 38.5637 31.6162C38.4286 31.4264 38.2364 31.324 38.0086 31.2899C37.1534 31.1618 36.1143 31.874 35.4701 32.3642C31.1405 35.6598 26.7549 43.5323 23.8695 48.3192C22.4012 50.7551 20.3228 54.3579 18.0111 55.9962C17.118 56.6293 16.071 57.08 14.9601 56.8868C14.1247 56.7414 13.2825 56.2671 12.7952 55.5626C9.14679 50.2889 22.1297 35.6381 23.2004 29.4819C23.3958 28.3587 23.2005 27.5797 22.5475 26.6505C16.8893 25.3841 9.58676 33.3906 6.06273 37.0973C4.76525 38.462 4.06786 40.4132 2.25243 41.124C-0.258927 40.728 -0.609134 38.9312 0.897449 37.1146C5.5749 31.4745 11.1406 25.6462 18.2257 23.1981C19.8422 22.7164 22.7291 22.3355 24.2546 23.2999C28.4406 26.2519 27.1199 30.0642 25.8096 33.8353C24.6164 37.2696 15.7673 49.9532 16.0794 52.5718L16.1872 52.6208C17.7011 51.8852 22.5616 43.0893 23.7786 41.1677C26.6471 36.7263 29.6866 31.653 34.155 28.6866C36.6157 27.053 40.3381 26.5883 41.9605 29.4741C42.7985 30.9647 42.7091 33.7151 42.2182 35.2513C40.5085 40.6025 37.2114 45.0023 35.7718 50.4817C39.5221 46.8661 41.8531 41.2009 45.4368 37.2903C47.6311 34.8959 50.1754 32.186 53.633 31.9048C54.6484 31.8223 55.8936 32.091 56.6475 32.819C60.5496 36.7857 55.4183 43.9899 54.3177 48.2736C54.1091 49.0852 54.1642 49.8812 54.2002 50.6749C54.5238 50.7385 54.8699 50.8224 55.2008 50.7965C59.3921 50.4687 69.0293 37.0482 72.1117 33.4005C72.8051 32.5798 73.5451 31.8376 74.6793 31.7539C75.2235 31.7138 75.7551 31.8303 76.1743 32.1959C76.8004 32.7427 76.943 33.6935 76.7766 34.4761C76.5595 35.4995 75.7797 36.6623 75.3126 37.6061C73.9392 40.3821 71.0846 46.2868 71.3356 49.3349C71.372 49.777 71.4949 50.2676 71.8543 50.5598C72.2198 50.8567 72.7559 50.8804 73.2027 50.8228C75.786 50.4897 80.3204 46.1259 82.174 44.2194C83.0924 43.2736 83.9435 42.2544 84.8374 41.2837C85.9247 40.1034 87.424 38.6962 88.2212 37.3014C88.6967 36.4699 88.9772 35.3011 89.306 34.3897C89.8782 32.7726 90.4908 31.17 91.143 29.5834C93.4886 23.741 96.1821 17.6559 99.3646 12.2235C101.862 7.9596 106.024 0.691822 111.275 0.0103406ZM94.6987 30.6072C94.9261 30.3732 95.1916 30.0848 95.4261 29.8656C96.9128 28.1345 98.3416 26.359 99.7981 24.6025C103.134 20.5796 112.29 9.77509 111.868 4.46617C111.853 4.27301 111.787 4.1615 111.652 4.02989C111.354 3.86929 110.991 3.93927 110.65 3.98851C110.134 4.23639 109.073 5.16725 108.667 5.61585C103.263 11.5911 99.6729 19.7097 96.3089 26.9727C95.9714 27.7005 94.9919 29.7816 94.7668 30.4074C94.743 30.4736 94.7201 30.5402 94.6987 30.6072Z" fill="#FEFEFE"/>
<path d="M135.826 19.4787C137.431 19.3126 139.354 19.4324 139.388 21.6811C139.422 23.8465 136.498 23.429 135.167 24.0396C134.225 24.4717 133.386 25.4238 132.61 26.1646C132.451 26.3349 132.099 26.5023 131.875 26.5403C129.39 26.9672 129.006 24.1119 130.223 22.541C131.503 20.8903 133.807 19.8124 135.826 19.4787Z" fill="#FEFEFE"/>
<path d="M82.4622 19.4717C84.1477 19.2926 85.9197 19.6181 85.7295 21.7718C85.5306 24.0269 82.7728 23.2957 81.3052 24.1675C80.2909 24.7702 79.7615 25.5291 78.8756 26.2692C77.5458 27.0271 76.0188 26.2567 75.953 24.8251C75.8048 21.5786 80.042 19.8361 82.4622 19.4717Z" fill="#FEFEFE"/>
<path d="M145.969 46.3908C150.287 46.2182 149.487 51.0403 146.71 52.5351C146.349 52.7293 145.943 52.8589 145.556 52.9948L145.503 53.0055C144.963 53.1101 143.874 52.9385 143.454 52.5862C141.181 50.6791 143.617 46.7888 145.969 46.3908Z" fill="#FEFEFE"/>
</svg>
