<svg width="983" height="207" viewBox="0 0 983 207" fill="none" xmlns="http://www.w3.org/2000/svg">
<g clip-path="url(#clip0_25_2500)">
<path d="M477.912 107.703V104.104C477.912 104.076 477.883 104.076 477.854 104.076C476.559 104.076 472.586 104.133 471.405 104.133C466.713 104.047 464.755 104.219 460.091 103.759C451.915 102.953 444.487 99.8146 437.577 95.5249C430.898 91.3792 424.392 86.9456 417.885 82.5407C409.622 76.9267 401.273 71.4854 391.83 68.0018C384.489 65.2956 376.975 63.7409 369.259 63.8561C361.543 63.7409 354.029 65.2956 346.688 68.0018C337.245 71.4854 328.896 76.9267 320.633 82.5407C314.126 86.9744 307.62 91.408 300.941 95.5249C294.031 99.8146 286.603 102.953 278.427 103.759C273.763 104.219 269.041 104.018 264.349 104.076C263.139 104.104 261.959 104.076 260.664 104.076C260.635 104.076 260.635 104.076 260.606 104.104H260.577V107.703H263.37C266.911 107.732 270.452 107.818 273.993 107.703H278.11C281.709 107.962 285.25 108.797 288.561 110.208C291.296 111.331 294.146 112.396 296.622 113.95C303.445 118.24 310.096 122.76 316.833 127.165C323.569 131.57 330.134 136.263 337.101 140.293C345.018 144.842 353.367 147.721 362.177 148.642V148.7H362.551H362.608C366.985 149.074 371.389 149.074 375.794 148.7H375.852H376.226V148.642C385.036 147.721 393.414 144.842 401.302 140.293C408.269 136.291 414.833 131.599 421.57 127.165C428.307 122.731 434.957 118.211 441.781 113.95C444.285 112.396 447.107 111.331 449.842 110.208C453.181 108.826 456.694 107.991 460.293 107.703M302.582 97.9433C309.981 92.9914 317.408 88.0684 324.807 83.0589C333.012 77.5025 341.448 72.4067 350.949 69.3837C354.835 68.1458 358.808 67.3109 362.868 66.879V66.9366C364.912 66.7063 366.956 66.5911 369.029 66.5623H369.432C371.476 66.5911 373.549 66.7063 375.593 66.9366V66.879C379.623 67.3109 383.625 68.1458 387.512 69.3837C397.041 72.4067 405.448 77.5025 413.653 83.0589C421.023 88.0684 428.48 92.9914 435.879 97.9433C436.138 98.116 436.195 98.4615 436.023 98.6918C435.907 98.8646 435.706 98.9509 435.504 98.9221C434.929 98.8358 434.353 98.6918 433.777 98.4903C425.428 95.6689 417.108 92.7899 408.73 90.0261C395.861 85.794 382.704 83.5196 369.23 83.6635C355.756 83.5484 342.6 85.8228 329.73 90.0261C321.353 92.7899 313.032 95.6689 304.683 98.4903C304.107 98.6918 303.532 98.8358 302.956 98.9221C302.668 98.9221 302.409 98.663 302.409 98.3751C302.409 98.2024 302.495 98.0585 302.639 97.9433H302.582ZM437.606 112.626C437.376 112.943 437.059 113.231 436.714 113.432C432.107 116.542 427.472 119.622 422.894 122.76C416.561 127.079 410.371 131.627 403.864 135.687C395.227 141.071 386.072 144.727 376.226 145.878C373.837 146.166 371.418 146.31 369 146.31C364.883 146.339 360.766 145.907 356.735 144.986C348.933 143.316 341.563 140.063 334.538 135.687C328.032 131.627 321.842 127.079 315.508 122.76C310.902 119.622 306.295 116.542 301.689 113.432L301.545 113.317C301.315 113.144 301.257 112.799 301.43 112.54C301.574 112.367 301.804 112.281 302.006 112.338C302.409 112.453 302.841 112.569 303.244 112.712C310.614 115.39 318.013 118.096 325.383 120.802C334.941 124.286 344.73 126.992 354.835 128.317C357.311 128.633 359.816 128.864 362.292 128.979L363.76 129.036H363.933C365.689 129.094 367.445 129.123 369.201 129.123C370.958 129.123 372.714 129.094 374.47 129.036H374.643C375.103 129.036 375.593 129.036 376.111 129.036V128.979C378.616 128.864 381.092 128.662 383.596 128.317C393.702 126.992 403.49 124.286 413.048 120.802C420.419 118.125 427.818 115.419 435.188 112.712C435.879 112.453 436.57 112.281 437.289 112.108C437.462 112.079 437.635 112.165 437.664 112.338C437.692 112.425 437.664 112.511 437.635 112.569L437.606 112.626ZM438.268 108.509C436.598 109.085 433.95 110.121 432.453 110.668C422.347 114.267 412.357 118.125 402.166 121.436C393.73 124.171 384.978 125.841 376.111 126.359V126.33C373.894 126.474 371.591 126.56 369.259 126.56C366.927 126.56 364.595 126.474 362.378 126.33V126.359C353.511 125.841 344.759 124.2 336.323 121.436C326.132 118.125 315.911 114.785 306.036 110.668C304.511 110.035 303.33 109.517 301.603 108.653C301.056 108.394 301.142 107.617 301.747 107.588H438.211C438.47 107.588 438.671 107.818 438.671 108.077C438.671 108.279 438.556 108.452 438.355 108.509H438.268ZM438.096 103.96C437.664 103.989 437.174 103.989 436.656 104.018H403.634C393.932 103.96 383.913 103.932 375.909 103.989H362.608C342.34 103.96 308.714 103.96 300.365 103.96C299.847 103.96 299.731 103.01 300.221 102.838C309.203 99.8146 318.214 96.8493 327.168 93.8263C337.734 90.2564 348.501 87.5501 359.643 86.7728C361.543 86.6289 363.472 86.5713 365.372 86.5425H369.259H373.146C375.074 86.5713 376.975 86.6289 378.875 86.7728C390.016 87.5501 400.784 90.2564 411.35 93.8263C420.332 96.8781 429.315 99.8434 438.297 102.838C439.132 103.298 438.671 103.932 438.124 103.96H438.096Z" fill="black"/>
<path d="M637.062 104.076V104.104C633.867 103.932 632.83 103.529 630.815 102.521V102.55C627.331 100.65 625.028 97.6843 623.502 94.028C622.322 91.2066 621.689 88.27 621.142 85.3046C620.479 81.6771 620.048 77.992 619.069 74.3933C617.831 69.8157 615.787 65.6987 612.447 62.3303C610.259 60.1423 607.726 58.5876 604.645 58.0118C600.269 57.1769 596.382 58.3861 592.812 60.862C588.523 63.885 585.529 67.9731 583.197 72.6083C581.21 76.5813 579.713 80.7558 578.072 84.8728C574.531 93.7113 568.111 99.3253 559.157 102.233L559.071 102.262C555.213 103.471 551.211 104.076 547.152 104.076H536.73V104.104H528.87V104.133H503.996V107.732H546.432C547.699 107.761 548.879 107.732 549.714 107.703H569.09H570.068L579.511 107.79C583.542 107.79 587.573 108.394 591.43 109.603L591.546 109.632C600.499 112.511 606.919 118.154 610.461 126.992C612.102 131.109 613.599 135.284 615.585 139.257C617.917 143.892 620.911 147.98 625.201 151.003C628.742 153.508 632.658 154.688 637.034 153.853C640.114 153.278 642.676 151.723 644.836 149.535C648.204 146.138 650.219 142.021 651.457 137.472C652.436 133.902 652.868 130.217 653.53 126.561C654.077 123.595 654.711 120.63 655.891 117.837C657.446 114.181 659.749 111.216 663.204 109.315C663.204 109.315 663.837 108.912 664.211 108.682C664.384 108.567 664.586 108.48 664.758 108.394C665.91 107.962 666.428 107.933 669.25 107.79H669.365H669.768H669.912L683.069 107.847V107.818H713.643V107.79H722.482V104.191M659.173 107.79C656.668 109.69 654.826 112.281 653.329 115.419C651.832 118.557 651.054 122.012 650.421 125.438C649.672 129.497 649.154 133.585 647.916 137.529C646.995 140.552 645.699 143.374 643.627 145.821C641.784 147.98 639.625 149.621 636.832 150.37C633.55 151.233 630.527 150.456 627.706 148.758C624.913 147.059 622.811 144.727 620.998 142.049C618.551 138.451 616.909 134.449 615.355 130.39C614.434 128 613.484 125.639 612.447 123.307C610.403 118.471 606.948 114.325 602.543 111.417C595.087 106.494 591.114 104.997 582.39 104.191C581.556 104.104 580.202 104.104 578.705 104.133H563.994C566.124 103.039 568.168 101.801 570.155 100.477C574.617 97.5403 577.87 93.5385 580.03 88.6155C581.066 86.2835 582.016 83.8939 582.909 81.5332C584.463 77.5026 586.104 73.5008 588.551 69.8733C590.365 67.2246 592.467 64.8638 595.26 63.1652C598.081 61.4378 601.104 60.6893 604.386 61.553C607.15 62.2727 609.338 63.9425 611.18 66.1018C613.253 68.5201 614.549 71.3415 615.47 74.3933C616.679 78.3375 617.226 82.4256 617.975 86.485C618.608 89.9398 619.385 93.337 620.883 96.5039C623.186 101.341 626.237 104.824 631.333 106.58C633.205 107.214 633.377 107.502 637.149 107.761V107.674" fill="black"/>
<path d="M221.711 104.191C215.262 104.191 208.813 104.248 202.335 104.162C202.019 104.162 201.76 103.932 201.731 103.615C201.645 102.982 201.587 102.55 201.529 102.118C200.954 97.5115 200.579 92.8476 199.744 88.27C198.219 79.9785 195.656 72.0325 190.935 64.9502C189.927 63.4819 189.38 61.7257 189.38 59.9407C189.294 56.1693 188.948 52.3978 187.71 48.7991C186.156 44.2215 181.78 41.141 176.972 41.4576C173.747 41.688 171.07 43.3578 168.738 45.9201C168.133 46.5822 167.586 47.302 166.924 48.1081C166.722 48.3672 166.319 48.4248 166.06 48.1945C165.974 48.1369 165.916 48.0505 165.887 47.9642C165.542 47.2444 165.254 46.6398 164.995 46.0064C162.289 39.9606 158.805 34.4329 154.199 29.6538C149.42 24.7595 143.892 21.2759 137.098 19.894C130.361 18.5121 123.451 18.3394 116.686 19.347C102.636 21.4199 90.458 27.4946 79.7482 36.7073C69.0383 45.9201 61.0348 57.1481 54.5282 69.5566C49.8931 78.3663 46.3519 87.5502 45.4019 97.5979C45.2291 99.2965 45.1715 101.024 45.0852 103.01C45.0564 103.327 44.7973 103.586 44.4518 103.586C43.5305 103.586 42.6956 103.586 41.8607 103.586L16.8711 103.73V107.617L42.235 107.473C43.185 107.473 44.1351 107.473 45.0276 107.473C45.3155 107.473 45.5458 107.646 45.6322 107.933C45.7761 108.394 45.8625 108.682 45.9201 108.97C48.0217 119.334 53.8949 127.108 62.3591 133.125C68.6929 137.616 75.7464 140.639 83.0878 143.172C100.88 149.276 118.816 150.197 136.896 144.669C141.675 143.201 146.31 141.243 151.262 139.372C151.579 139.257 151.953 139.401 152.068 139.746V139.775C152.27 140.38 152.443 140.984 152.644 141.589C153.623 144.583 154.487 147.606 155.638 150.514C157.049 154.055 158.949 157.366 161.771 160.043C166.031 164.103 170.955 165.168 176.511 163.124C179.591 162.001 182.24 160.13 184.601 157.884C190.301 152.471 194.188 145.879 197.096 138.652C200.349 130.505 201.616 121.983 201.731 113.26C201.76 111.763 201.817 110.265 201.875 108.567C201.875 108.221 202.163 107.962 202.508 107.962H234.638V104.162C230.29 104.191 226.001 104.191 221.711 104.191ZM189.351 70.3915C195.08 80.8422 197.096 92.1278 197.7 104.018H181.923C185.493 92.9627 187.797 81.7923 189.351 70.3915ZM176.684 45.4019C179.879 44.7973 182.528 46.2943 183.766 49.2885C184.831 51.9084 185.263 54.6722 185.234 58.127C180.657 54.2404 175.705 52.0523 169.774 51.2174C171.53 48.1657 173.459 46.0064 176.684 45.4019ZM184.802 63.338C185.292 63.885 185.493 64.9214 185.436 65.6987C184.63 78.4238 182.154 90.9762 178.066 103.039C177.864 103.413 177.634 103.788 177.403 104.162L166.953 103.097C171.617 87.0896 172.682 71.3703 168.248 55.1328C175.331 55.5935 180.599 58.5013 184.802 63.338ZM165.513 62.3591C168.536 75.8328 167.068 88.9609 163.095 102.291L158.345 101.312C161.511 88.2412 162.087 75.0554 165.513 62.3591ZM159.467 70.7945C158.287 77.5314 157.481 84.3258 156.416 91.0914C155.955 94.0855 155.264 97.0221 154.631 100.362C152.299 99.6132 150.226 99.0374 148.239 98.2601C147.664 98.0298 147.145 97.1948 147.001 96.5615C145.879 91.7536 144.813 86.9169 143.806 82.109C143.662 81.4468 143.662 80.7846 143.806 80.1512C144.928 74.6524 144.554 69.1823 143.345 63.741C143.316 63.3667 143.316 62.9925 143.345 62.647C149.362 59.1922 155.667 56.3132 162.922 55.3919C161.684 60.8044 160.389 65.7563 159.467 70.7945ZM137.961 84.3546C136.435 86.9169 134.42 89.1625 132.031 90.9474L124.545 86.2547C125.582 79.9209 130.908 71.5431 136.032 68.261C136.954 71.6294 137.731 74.9403 138.796 78.1359C139.631 80.4679 139.142 82.3969 137.961 84.3546ZM140.984 87.2623C141.675 90.4004 142.222 93.0203 142.913 96.2448L136.004 93.0779L140.984 87.2623ZM128.518 93.3946L123.192 96.0145C123.336 93.8264 123.451 92.2718 123.566 90.2565L128.518 93.3946ZM121.004 83.4621C120.169 82.9151 119.507 82.5696 118.989 82.0802C115.045 78.3663 111.129 74.6236 107.156 70.9385C105.918 69.7869 105.889 68.6641 106.523 67.1382C109.978 58.674 118.125 53.1463 126.964 53.2615C129.526 53.2903 131.311 53.9525 132.059 56.7163C132.693 59.0771 133.729 61.3515 134.679 63.8562C128.173 69.2111 123.653 75.5737 121.004 83.4621ZM113.173 53.3479C108.48 56.1117 105.4 60.2286 102.953 65.6699C98.5768 59.0771 95.0356 52.8872 95.1796 45.2579C95.2659 40.7379 97.31 37.3983 101.341 35.4406C106.926 32.7343 112.511 32.6192 117.866 36.0739C122.703 39.212 125.726 43.9048 128.605 49.2885C122.847 49.3461 117.808 50.584 113.173 53.3479ZM104.68 74.3645C107.243 76.7828 109.603 79.1436 112.108 81.3604C114.613 83.5772 117.175 85.6213 119.795 87.8094C119.593 91.1202 119.392 94.2007 119.19 97.6843L107.271 100.707C104.277 96.072 102.838 81.7635 104.68 74.3645ZM119.795 101.6C122.127 112.022 126.589 121.033 135.773 127.165C130.994 128.029 126.733 126.82 122.789 124.344C118.068 121.407 114.67 117.233 111.906 112.511C110.496 110.064 109.373 107.473 107.933 104.623L119.795 101.6ZM134.161 120.803C128.23 115.275 125.035 108.337 123.682 100.247L132.462 95.6978C135.888 97.2524 139.458 98.8071 142.942 100.506C143.489 100.765 143.978 101.6 144.122 102.233C145.245 107.53 146.253 112.857 147.376 118.154C147.692 119.68 147.001 120.745 146.109 121.753C142.798 125.668 142.884 125.985 137.846 123.422C136.522 122.731 135.255 121.839 134.161 120.803ZM49.2885 97.31C49.9219 91.1202 51.6781 85.1895 54.1252 79.4891C60.0271 65.8139 67.8868 53.4054 78.5966 42.9835C89.2488 32.6479 101.686 25.7096 116.455 23.2912C123.048 22.1972 129.785 22.3412 136.32 23.6943C141.502 24.7595 145.936 27.2354 149.765 30.8054C155.581 36.2467 159.582 42.8684 162.461 50.2386C162.548 50.4977 162.519 50.7856 162.577 51.3614C155.178 52.4554 148.383 55.2768 141.819 58.9043C140.812 57.4936 139.919 56.1405 138.911 54.9025C138.192 54.0388 137.386 53.06 136.435 52.5705C134.017 51.3902 132.894 49.2885 131.771 47.0717C129.756 43.0699 127.251 39.356 124.056 36.1603C120.371 32.4752 116.081 29.9993 110.784 29.6826C105.486 29.3659 100.563 30.6327 96.3887 34.0299C93.193 36.6209 91.6384 40.1333 91.2929 44.1927C90.9762 48.3672 91.8399 52.3402 93.337 56.1981C95.0356 60.5741 97.3964 64.5759 100.16 68.3762C100.851 69.2975 101.427 70.1612 101.11 71.4855C98.9222 80.9861 99.8723 90.4004 102.319 99.6996C102.435 100.131 102.521 100.592 102.694 101.341C84.9879 104.018 67.2822 103.356 49.5764 103.586C48.6551 101.427 49.087 99.3253 49.2885 97.31ZM148.095 136.205C134.305 142.827 119.766 145.562 104.594 144.007C92.0702 142.769 79.9209 138.911 68.952 132.75C62.647 129.209 57.2345 124.632 53.4918 118.327C51.5053 115.045 50.2098 111.417 49.6628 107.617C50.7856 107.559 51.7644 107.473 52.7721 107.444C63.7122 107.271 74.6524 107.243 85.5637 106.868C90.8611 106.696 96.1584 105.918 101.456 105.429C102.291 105.342 103.126 105.314 104.047 105.256C104.997 107.329 105.861 109.315 106.811 111.273C109.143 115.995 112.079 120.313 115.937 123.912C122.357 129.929 129.843 132.664 138.681 130.965C139.43 130.821 140.149 130.591 140.898 130.418L149.391 128.403C149.938 130.821 150.37 132.664 150.83 134.737C149.88 135.255 149.017 135.773 148.095 136.205ZM150.255 112.77C149.592 109.488 148.959 106.206 148.21 102.492L153.565 104.162C152.903 107.329 152.04 110.122 150.255 112.77ZM152.04 121.81C152.04 121.119 151.838 120.342 152.068 119.737C153.911 114.987 155.84 110.265 157.855 105.256L161.742 106.091C159.669 112.108 157.452 117.722 152.759 121.983L152.04 121.81ZM153.047 126.733C156.329 124.516 159.007 121.494 160.82 117.952C162.663 114.44 164.189 110.755 165.945 106.926L175.647 107.905C175.215 115.102 162.404 129.727 154.314 132.29C153.911 130.562 153.508 128.806 153.047 126.733ZM188.2 147.318C186.847 149.391 185.321 151.349 183.68 153.191C182.327 154.659 180.858 156.013 179.217 157.193C172.394 162.231 166.118 160.993 161.569 153.796C158.345 148.642 156.819 142.856 155.379 136.752C166.809 129.987 175.964 121.148 180.282 108.193H197.412C197.556 108.538 197.787 108.884 197.815 109.2C198.046 122.76 195.829 135.745 188.2 147.318Z" fill="black"/>
<path d="M914.338 104.738L907.025 98.5477C906.708 98.2598 906.248 98.1735 905.816 98.2886C905.413 98.4038 905.096 98.7493 905.01 99.1811C904.923 99.6129 905.096 100.016 905.413 100.304L909.818 104.018H748.191V107.617H909.847L905.413 111.359C904.952 111.762 904.895 112.482 905.298 112.971L905.327 113C905.758 113.461 906.507 113.518 907.025 113.115L914.338 106.926C914.942 106.436 915.029 105.544 914.539 104.939C914.482 104.853 914.395 104.766 914.338 104.738ZM911.804 105.947V105.716C911.891 105.745 911.891 105.86 911.804 105.947C911.833 105.918 911.833 105.918 911.804 105.947Z" fill="black"/>
<path d="M247.564 99.498C251.019 99.498 253.812 102.291 253.812 105.745V106.005C253.812 109.459 251.019 112.252 247.564 112.252C244.11 112.252 241.317 109.459 241.317 106.005V105.745C241.346 102.291 244.138 99.498 247.564 99.498Z" fill="black"/>
<path d="M490.983 99.498C494.438 99.498 497.23 102.291 497.23 105.745V106.005C497.23 109.459 494.438 112.252 490.983 112.252C487.528 112.252 484.735 109.459 484.735 106.005V105.745C484.735 102.291 487.528 99.498 490.983 99.498Z" fill="black"/>
<path d="M735.524 99.498C738.979 99.498 741.771 102.291 741.771 105.745V106.005C741.771 109.459 738.979 112.252 735.524 112.252C732.069 112.252 729.276 109.459 729.276 106.005V105.745C729.276 102.291 732.069 99.498 735.524 99.498Z" fill="black"/>
<path d="M927.696 99.498C931.151 99.498 933.944 102.291 933.944 105.745V106.005C933.944 109.459 931.151 112.252 927.696 112.252C924.241 112.252 921.449 109.459 921.449 106.005V105.745C921.449 102.291 924.27 99.498 927.696 99.498Z" fill="black"/>
</g>
<defs>
<clipPath id="clip0_25_2500">
<rect width="982.8" height="206.222" fill="white"/>
</clipPath>
</defs>
</svg>
