<svg width="53" height="49" viewBox="0 0 53 49" fill="none" xmlns="http://www.w3.org/2000/svg">
<path d="M39.964 24.5H52.1133C52.3494 24.5027 52.5749 24.5985 52.7409 24.7667C52.9069 24.9349 53 25.1618 53 25.3983V48.1017C53 48.5978 52.6045 49 52.1153 49H38.743C38.2538 49 37.8583 48.5978 37.8583 48.1017V26.6356C37.8583 25.4555 36.9145 24.5 35.7526 24.5H32.3912C31.8292 24.5038 31.2918 24.7308 30.897 25.1313C30.5021 25.5317 30.2822 26.0728 30.2854 26.6356V48.1017C30.2854 48.5978 29.89 49 29.4007 49H23.6013C23.1121 49 22.7146 48.5978 22.7146 48.1017V26.6356C22.7146 25.4555 21.7708 24.5 20.6088 24.5H17.2495C16.6876 24.5038 16.1501 24.7308 15.7553 25.1313C15.3604 25.5317 15.1405 26.0728 15.1437 26.6356V48.1017C15.1437 48.5978 14.7462 49 14.257 49H0.886731C0.3975 49 0 48.5978 0 48.1017V25.3983C-9.77103e-06 25.1615 0.0933671 24.9342 0.259813 24.766C0.42626 24.5977 0.652306 24.5022 0.888769 24.5H13.038C13.5999 24.4962 14.1373 24.2692 14.5322 23.8687C14.927 23.4683 15.147 22.9272 15.1437 22.3644V0.898333C15.1437 0.661839 15.2368 0.434878 15.4028 0.266698C15.5688 0.0985181 15.7944 0.00268744 16.0305 0H21.8278C22.064 0.00268744 22.2895 0.0985181 22.4555 0.266698C22.6215 0.434878 22.7146 0.661839 22.7146 0.898333V22.3644C22.7113 22.9272 22.9313 23.4683 23.3261 23.8687C23.721 24.2692 24.2584 24.4962 24.8203 24.5H28.1797C28.7416 24.4962 29.279 24.2692 29.6739 23.8687C30.0687 23.4683 30.2887 22.9272 30.2854 22.3644V0.898333C30.2854 0.661839 30.3785 0.434878 30.5445 0.266698C30.7105 0.0985181 30.936 0.00268744 31.1722 0H36.9716C37.2077 0.00268744 37.4332 0.0985181 37.5992 0.266698C37.7652 0.434878 37.8583 0.661839 37.8583 0.898333V22.3644C37.8551 22.9272 38.075 23.4683 38.4699 23.8687C38.8647 24.2692 39.4021 24.4962 39.964 24.5Z" fill="black"/>
</svg>
