<svg xmlns="http://www.w3.org/2000/svg" shape-rendering="geometricPrecision" text-rendering="geometricPrecision" image-rendering="optimizeQuality" fill-rule="evenodd" clip-rule="evenodd" viewBox="0 0 512 428.862"><path fill-rule="nonzero" d="M355.945 299.241c-16.573-64.745-45.269-126.858-86.582-177.533-17.764-21.785-36.98-39.849-57.646-54.189-5.193-3.599-2.291-12.434 4.054-12.406 1.622 0 3.386.432 5.293 1.295C314.418 98.519 381.71 178.899 420.32 272.851a349.638 349.638 0 0111.311 31.81c2.034 6.701-4.212 12.776-10.457 8.806-16.076-10.2-37.487-10.954-57.589-8.422-3.756.47-6.758-2.332-7.64-5.804zm12.193 110.668c8.82 6.616 17.015 5.976 25.394-.156 9.437-6.915 19.158-14.018 29.164-21.312 8.607-6.274 18.865-8.493 29.307-5.662 4.088 1.119 8.821 3.671 14.198 7.654a2169.868 2169.868 0 0028.296 20.671c3.064 2.191 6.35 3.31 9.859 3.358 4.486.066 7.019 2.323 7.598 6.771a4.672 4.672 0 01-.285 2.391c-1.29 3.319-3.713 4.983-7.27 4.993-6.373.029-12.183-1.783-17.427-5.434a955.133 955.133 0 01-30.047-21.838c-7.867-5.933-16.517-7.981-24.854-1.949a12234.402 12234.402 0 00-31.326 22.706c-8.859 6.439-18.476 8.265-28.852 5.476-4.39-1.185-9.238-3.77-14.539-7.753-9.74-7.312-18.955-14.027-27.643-20.144-7.511-5.302-15.094-5.269-22.747.099-8.394 5.89-17.2 12.306-26.419 19.248-5.994 4.515-11.173 7.365-15.536 8.55-10.309 2.817-19.955.996-28.936-5.463a2286.243 2286.243 0 01-28.696-20.969c-9.858-7.313-17.512-6.972-27.215.085a18230.827 18230.827 0 00-29.065 21.197c-8.469 6.185-17.973 7.887-28.509 5.108-4.382-1.157-9.219-3.732-14.512-7.726-9.152-6.904-18.954-14.022-29.406-21.353-5.932-4.169-14.853-3.159-20.472.939a3834.273 3834.273 0 01-32.735 23.602c-5.444 3.879-11.798 5.728-19.064 5.548-2.93-.066-4.993-1.888-6.188-5.463a4.026 4.026 0 01-.185-1.75c.446-4.401 2.878-6.701 7.298-6.9 4.126-.18 7.607-1.304 10.443-3.371 10.66-7.768 21.074-15.332 31.241-22.692.256-.19.308-.427.156-.711a2580.357 2580.357 0 00-13.97-24.555c-3.016-5.208-.355-10.955 5.833-11.353a812261.421 812261.421 0 00428.289-26.931 45.868 45.868 0 015.578-.028c4.353.242 6.942 5.164 5.732 9.119-.397 1.319-1.583 2.864-3.556 4.638-31.81 28.61-69.298 51.23-108.819 70.151-.693.341-.73.745-.113 1.209zm-52.411-95.631c-34.675-13.59-71.246-20.273-109.715-20.045-45.411.271-89.115 13.359-126.204 37.771-7.383 4.852-15.279-4.41-9.688-10.456 3.158-3.423 5.989-6.924 8.493-10.499 22.421-32.048 35.685-68.188 39.792-108.42 6.957-68.245-14.952-133.303-48.527-192.599-1.38-2.433-.043-7.014 2.433-8.636C74.9-.303 77.542-.451 80.235.954 132.75 28.42 179.636 62.378 220.893 102.83c57.162 56.038 99.358 124.895 109.245 204.947.589 4.733-1.261 7.607-5.547 8.621-2.761.655-6.019-1.01-8.864-2.12z"/><path fill-rule="nonzero" d="M369.005 290.236c14.369-1.423 29.492-.484 43.448 3.627a.4.4 0 00.483-.513c-27.841-75.556-75.386-144.213-140.7-191.19-1.185-.844-1.299-.715-.341.385 46.407 53.321 78.032 118.536 96.228 187.079.123.456.417.659.882.612z"/></svg>
