<svg width="53" height="53" viewBox="0 0 53 53" fill="none" xmlns="http://www.w3.org/2000/svg">
<path d="M17.6171 0.0333093C17.6665 0.0299856 17.7158 0.0272979 17.7652 0.0251764C18.883 -0.0243966 20.3413 0.0145688 21.4854 0.0143566L28.5774 0.0142153L32.984 0.0156299C34.0553 0.0161956 35.1484 -0.0194459 36.2077 0.124606C37.7514 0.349275 38.272 1.98504 37.1978 3.10026C36.6257 3.69407 35.436 3.55292 34.6601 3.5438C34.5734 4.72945 34.5964 7.06029 34.6083 8.27473C34.6278 10.2602 34.45 13.9626 34.9832 15.7681C35.5343 17.6343 37.8802 20.8453 39.0321 22.5918L48.12 36.4721C48.9135 37.6946 49.7132 38.913 50.5191 40.1272C51.6975 41.9028 53.0169 43.6712 52.9998 45.9127C52.9866 48.7715 51.0677 51.5975 48.3009 52.4697C46.1113 53.1599 43.5193 52.9785 41.2227 52.9784L35.6957 52.9756L15.8842 52.9757L10.4615 52.9791C8.85167 52.9795 7.4783 53.0199 5.87663 52.7668C2.0232 52.158 -0.69544 48.3392 0.157045 44.5292C0.33817 43.7444 0.631885 42.9899 1.02918 42.2888C1.50069 41.4405 2.36694 40.261 2.92627 39.4244L5.78674 35.0615L14.047 22.5353C15.7524 19.9587 18.1262 17.1541 18.2733 14.0073C18.3427 12.5219 18.2979 10.9 18.2978 9.40458L18.2973 3.54238C17.5599 3.55504 16.4586 3.67137 15.8753 3.16687C15.1763 2.56217 15.0756 1.38571 15.7151 0.696215C16.2858 0.0808309 16.8438 0.0705067 17.6171 0.0333093Z" fill="black"/>
<path d="M21.9135 3.5498L31.1865 3.55794L31.1764 10.5001C31.1762 12.3136 31.1529 14.0676 31.3585 15.8832C31.6388 18.3598 33.2209 20.392 34.5383 22.4281C35.2021 23.454 35.8713 24.4615 36.5155 25.5018C36.9892 26.2666 37.5928 26.9952 38.0504 27.7765C38.38 28.3203 38.6892 29.029 38.5562 29.662C38.4004 30.4036 37.0042 30.5903 36.4083 30.6851C34.7861 30.9431 33.1785 31.1541 31.5888 31.5667C29.1433 32.3337 26.2326 33.8725 24.0198 35.1415C21.0031 36.7292 16.9752 38.5491 13.5481 37.7752C12.4662 37.5309 11.017 37.1825 10.367 36.2221C10.2736 35.7008 10.2363 35.2198 10.4578 34.7258C10.8841 33.7748 11.6027 32.9018 12.1732 32.007C13.9254 29.2587 15.7523 26.5276 17.512 23.7888C18.6544 22.0108 20.6769 19.2566 21.3343 17.2917C22.0198 15.2434 21.9184 11.6678 21.9164 9.47091L21.9135 3.5498Z" fill="white"/>
</svg>
