<svg width="53" height="53" viewBox="0 0 53 53" fill="none" xmlns="http://www.w3.org/2000/svg">
<g clip-path="url(#clip0_108_1457)">
<path d="M10.36 0.0660189C11.3315 -0.0206505 13.3244 0.0364013 14.3564 0.036314L22.1864 0.036402L35.1239 0.038323C37.768 0.0386725 40.6746 -0.136675 43.2623 0.25989C43.8875 0.355733 43.7891 2.65806 43.497 3.15563C42.3961 4.10698 31.6137 3.29646 29.2359 3.61789C28.8369 3.6718 28.4332 3.88577 28.1922 4.21698C28.0049 4.47148 27.9274 4.79134 27.9775 5.10412C28.2063 6.55225 29.9807 6.43246 31.0674 6.64573C38.0125 8.0085 44.6217 12.2398 47.3512 19.0399C47.7708 20.0853 47.9929 21.2748 48.4487 22.2916C48.7439 22.9499 49.4596 23.6428 49.7934 24.2956C55.1806 32.8932 54.4449 47.6892 42.4402 49.7725C40.3008 50.0705 38.0608 49.9914 35.897 49.9881L27.7043 49.9866L17.6554 49.9874C15.3362 49.9874 13.0245 50.0665 10.7748 49.8017C0.07582 48.5458 -2.16945 35.1986 1.90183 26.9327C2.62048 25.4737 3.05213 24.4077 4.08839 23.0685C5.03088 21.8503 5.27355 19.8882 5.94866 18.3981C8.61639 12.5104 13.9224 8.86375 19.9583 7.11988C20.6405 6.91718 21.3337 6.75442 22.0345 6.63236C22.739 6.51188 23.6769 6.48095 24.3301 6.20924C24.5901 6.10116 24.7718 5.91262 24.8682 5.6479C25.0079 5.26452 25.0581 4.76154 24.8766 4.38333C24.7012 4.01787 24.3493 3.76179 23.9646 3.65861C23.1426 3.43791 22.0408 3.56626 21.1799 3.56731C19.5031 3.56923 10.8783 3.73977 10.1166 3.44735C9.76669 3.31298 9.52619 3.08713 9.38369 2.73722C9.20771 2.30492 9.21899 1.02393 9.43347 0.601063C9.60632 0.260327 10.0283 0.167803 10.36 0.0660189Z" fill="black"/>
<path d="M12.0618 26.104C15.9758 25.566 21.0374 27.1836 24.2005 29.3796C24.8604 29.8376 25.7352 30.6018 26.4401 30.9103C27.0484 30.838 28.5329 29.532 29.145 29.1238C34.1514 25.7841 41.365 25.0907 46.9541 27.4541L46.9686 38.8246C46.969 40.3362 47.0602 43.4737 46.9298 44.8802C46.6723 45.0482 46.5905 44.9882 46.2251 44.9948L6.03347 44.9906C5.96671 39.1854 6.0188 33.2398 6.02852 27.4281C8.02562 26.646 9.95111 26.3615 12.0618 26.104Z" fill="white"/>
<path d="M15.095 31.0627C16.0217 30.9698 17.1172 30.869 17.7724 31.6462C18.0728 32.4677 18.084 38.2956 17.757 39.4374C17.6894 39.6732 17.2707 39.8536 17.0219 39.9395C16.5114 39.9954 14.4189 40.1704 14.2891 39.4651C13.8451 37.0518 13.9941 34.1362 14.1968 31.6902C14.2182 31.4333 14.8942 31.1467 15.095 31.0627Z" fill="#120539"/>
<path d="M36.056 32.0358C36.6037 31.9817 38.7584 31.8868 38.8362 32.6362C39.0617 34.8121 39.058 37.2794 38.8025 39.4538C38.7768 39.6729 38.199 39.8904 37.9985 39.9565C37.385 39.9905 35.4536 40.1589 35.3022 39.4855C34.8421 37.4385 34.9968 34.7438 35.1825 32.642C35.2058 32.3794 35.8312 32.1232 36.056 32.0358Z" fill="#120539"/>
</g>
<defs>
<clipPath id="clip0_108_1457">
<rect width="53" height="53" fill="white"/>
</clipPath>
</defs>
</svg>
