<svg width="18" height="18" viewBox="0 0 18 18" fill="none" xmlns="http://www.w3.org/2000/svg">
<path d="M9 8.5C10.3807 8.5 11.5 7.38071 11.5 6C11.5 4.61929 10.3807 3.5 9 3.5C7.61929 3.5 6.5 4.61929 6.5 6C6.5 7.38071 7.61929 8.5 9 8.5Z" stroke="#A7AEA1" stroke-width="1.3"/>
<path d="M4.5002 9.30001C5.49431 9.30001 6.3002 8.49412 6.3002 7.50001C6.3002 6.5059 5.49431 5.70001 4.5002 5.70001C3.50608 5.70001 2.7002 6.5059 2.7002 7.50001C2.7002 8.49412 3.50608 9.30001 4.5002 9.30001Z" stroke="#A7AEA1" stroke-width="1.2"/>
<path d="M13.5002 9.30001C14.4943 9.30001 15.3002 8.49412 15.3002 7.50001C15.3002 6.5059 14.4943 5.70001 13.5002 5.70001C12.5061 5.70001 11.7002 6.5059 11.7002 7.50001C11.7002 8.49412 12.5061 9.30001 13.5002 9.30001Z" stroke="#A7AEA1" stroke-width="1.2"/>
<path d="M2 15C2 13 3.5 11.5 5.5 11.5" stroke="#A7AEA1" stroke-width="1.2" stroke-linecap="round"/>
<path d="M16 15C16 13 14.5 11.5 12.5 11.5" stroke="#A7AEA1" stroke-width="1.2" stroke-linecap="round"/>
<path d="M6 15C6 13 7.3 12 9 12C10.7 12 12 13 12 15" stroke="#A7AEA1" stroke-width="1.3" stroke-linecap="round"/>
</svg>
