<svg width="505" height="513" viewBox="0 0 505 513" fill="none" xmlns="http://www.w3.org/2000/svg">
<circle opacity="0.2" cx="252.029" cy="256.112" r="213.842" fill="#E7EFF4" stroke="#EDEDED"/>
<circle opacity="0.4" cx="252.028" cy="256.112" r="164.378" fill="#F3F5F8" stroke="#EDEDED"/>
<circle cx="252.029" cy="256.109" r="106.121" fill="#3F8EF7" stroke="#EDEDED"/>
<path d="M205.434 242.714C209.298 242.714 212.334 243.496 214.496 245.106C216.796 246.808 218.13 249.476 218.452 253.064H213.116C212.656 251.04 211.782 249.568 210.586 248.694C209.39 247.774 207.55 247.36 205.158 247.36C203.088 247.36 201.524 247.636 200.42 248.234C199.04 248.924 198.396 250.074 198.396 251.638C198.396 253.018 199.132 254.168 200.696 254.996C201.386 255.364 203.272 256.054 206.308 257.02C210.77 258.4 213.622 259.504 214.91 260.24C217.762 261.942 219.188 264.288 219.188 267.324C219.188 270.268 218.038 272.614 215.738 274.316C213.438 275.972 210.172 276.846 205.986 276.846C201.938 276.846 198.764 276.064 196.51 274.5C193.75 272.568 192.232 269.532 192.002 265.346H197.338C197.706 267.83 198.58 269.624 200.006 270.682C201.294 271.602 203.272 272.108 205.986 272.108C208.378 272.108 210.31 271.694 211.69 270.912C213.07 270.084 213.806 269.026 213.806 267.646C213.806 265.898 212.748 264.518 210.724 263.506C210.08 263.184 207.964 262.448 204.33 261.344C200.282 260.056 197.752 259.136 196.786 258.584C194.256 257.066 193.014 254.858 193.014 251.96C193.014 249.062 194.21 246.762 196.694 245.106C198.994 243.496 201.892 242.714 205.434 242.714ZM233.143 243.358H239.261L251.819 276.202H246.069L243.079 267.968H229.325L226.335 276.202H220.585L233.143 243.358ZM230.935 263.552H241.469L236.317 249.154H236.133L230.935 263.552ZM264.363 243.358H270.481L283.039 276.202H277.289L274.299 267.968H260.545L257.555 276.202H251.805L264.363 243.358ZM262.155 263.552H272.689L267.537 249.154H267.353L262.155 263.552ZM297.838 242.714C301.702 242.714 304.738 243.496 306.9 245.106C309.2 246.808 310.534 249.476 310.856 253.064H305.52C305.06 251.04 304.186 249.568 302.99 248.694C301.794 247.774 299.954 247.36 297.562 247.36C295.492 247.36 293.928 247.636 292.824 248.234C291.444 248.924 290.8 250.074 290.8 251.638C290.8 253.018 291.536 254.168 293.1 254.996C293.79 255.364 295.676 256.054 298.712 257.02C303.174 258.4 306.026 259.504 307.314 260.24C310.166 261.942 311.592 264.288 311.592 267.324C311.592 270.268 310.442 272.614 308.142 274.316C305.842 275.972 302.576 276.846 298.39 276.846C294.342 276.846 291.168 276.064 288.914 274.5C286.154 272.568 284.636 269.532 284.406 265.346H289.742C290.11 267.83 290.984 269.624 292.41 270.682C293.698 271.602 295.676 272.108 298.39 272.108C300.782 272.108 302.714 271.694 304.094 270.912C305.474 270.084 306.21 269.026 306.21 267.646C306.21 265.898 305.152 264.518 303.128 263.506C302.484 263.184 300.368 262.448 296.734 261.344C292.686 260.056 290.156 259.136 289.19 258.584C286.66 257.066 285.418 254.858 285.418 251.96C285.418 249.062 286.614 246.762 289.098 245.106C291.398 243.496 294.296 242.714 297.838 242.714Z" fill="#F4F7F9"/>
<circle cx="252.027" cy="60.4554" r="59.4554" fill="#3F8EF7" stroke="#EDF5FE" stroke-width="2"/>
<path d="M250.379 154.821C253.324 154.821 255.712 152.433 255.712 149.487C255.712 146.542 253.324 144.154 250.379 144.154C247.433 144.154 245.046 146.542 245.046 149.487C245.046 152.433 247.433 154.821 250.379 154.821ZM250.379 149.487L251.379 149.487L251.379 120.908L250.379 120.908L249.379 120.908L249.379 149.487L250.379 149.487Z" fill="#EDF5FE"/>
<path d="M225.947 50.7449H229.235L235.067 64.1849H235.163L240.971 50.7449H244.259V67.8809H241.451V56.0729H241.355L236.315 67.8809H233.891L228.851 56.0729H228.755V67.8809H225.947V50.7449ZM247.626 50.7449H259.986V53.1449H250.434V57.8969H259.41V60.2969H250.434V65.4809H260.394V67.8809H247.626V50.7449ZM269.073 50.4089C271.089 50.4089 272.673 50.8169 273.801 51.6569C275.001 52.5449 275.697 53.9369 275.865 55.8089H273.081C272.841 54.7529 272.385 53.9849 271.761 53.5289C271.137 53.0489 270.177 52.8329 268.929 52.8329C267.849 52.8329 267.033 52.9769 266.457 53.2889C265.737 53.6489 265.401 54.2489 265.401 55.0649C265.401 55.7849 265.785 56.3849 266.601 56.8169C266.961 57.0089 267.945 57.3689 269.529 57.8729C271.857 58.5929 273.345 59.1689 274.017 59.5529C275.505 60.4409 276.249 61.6649 276.249 63.2489C276.249 64.7849 275.649 66.0089 274.449 66.8969C273.249 67.7609 271.545 68.2169 269.361 68.2169C267.249 68.2169 265.593 67.8089 264.417 66.9929C262.977 65.9849 262.185 64.4009 262.065 62.2169H264.849C265.041 63.5129 265.497 64.4489 266.241 65.0009C266.913 65.4809 267.945 65.7449 269.361 65.7449C270.609 65.7449 271.617 65.5289 272.337 65.1209C273.057 64.6889 273.441 64.1369 273.441 63.4169C273.441 62.5049 272.889 61.7849 271.833 61.2569C271.497 61.0889 270.393 60.7049 268.497 60.1289C266.385 59.4569 265.065 58.9769 264.561 58.6889C263.241 57.8969 262.593 56.7449 262.593 55.2329C262.593 53.7209 263.217 52.5209 264.513 51.6569C265.713 50.8169 267.225 50.4089 269.073 50.4089Z" fill="white"/>
<circle cx="252.029" cy="451.767" r="59.4554" transform="rotate(-180 252.029 451.767)" fill="#3F8EF7" stroke="#EDF5FE" stroke-width="2"/>
<path d="M222.452 442.328H230.3C232.004 442.328 233.348 442.736 234.308 443.552C235.196 444.32 235.652 445.352 235.652 446.648C235.652 447.608 235.412 448.424 234.956 449.096C234.5 449.72 233.852 450.176 232.988 450.512C234.116 450.728 234.956 451.184 235.532 451.88C236.084 452.552 236.372 453.488 236.372 454.64C236.372 456.368 235.772 457.64 234.596 458.456C233.588 459.128 232.148 459.464 230.324 459.464H222.452V442.328ZM225.26 444.632V449.528H229.556C230.756 449.528 231.596 449.312 232.1 448.928C232.58 448.52 232.844 447.872 232.844 446.984C232.844 446.168 232.58 445.568 232.1 445.208C231.572 444.824 230.756 444.632 229.604 444.632H225.26ZM225.26 451.832V457.16H229.916C230.972 457.16 231.812 456.992 232.412 456.656C233.18 456.224 233.564 455.552 233.564 454.592C233.564 453.608 233.276 452.912 232.724 452.48C232.148 452.048 231.236 451.832 229.988 451.832H225.26ZM237.702 442.328H251.742V444.728H246.126V459.464H243.318V444.728H237.702V442.328ZM261.228 441.992C263.244 441.992 264.924 442.52 266.22 443.576C267.468 444.584 268.212 445.976 268.476 447.704H265.74C265.452 446.576 264.924 445.76 264.132 445.232C263.364 444.704 262.38 444.464 261.18 444.464C259.38 444.464 258.036 445.064 257.124 446.312C256.284 447.416 255.876 448.952 255.876 450.92C255.876 452.936 256.284 454.496 257.1 455.576C257.988 456.728 259.38 457.328 261.252 457.328C262.476 457.328 263.484 457.016 264.252 456.44C265.068 455.792 265.644 454.808 265.98 453.512H268.716C268.332 455.528 267.444 457.088 266.028 458.216C264.708 459.272 263.124 459.8 261.276 459.8C258.42 459.8 256.284 458.888 254.892 457.112C253.668 455.576 253.068 453.512 253.068 450.92C253.068 448.376 253.692 446.288 254.964 444.704C256.404 442.88 258.492 441.992 261.228 441.992ZM277.414 441.992C279.43 441.992 281.014 442.4 282.142 443.24C283.342 444.128 284.038 445.52 284.206 447.392H281.422C281.182 446.336 280.726 445.568 280.102 445.112C279.478 444.632 278.518 444.416 277.27 444.416C276.19 444.416 275.374 444.56 274.798 444.872C274.078 445.232 273.742 445.832 273.742 446.648C273.742 447.368 274.126 447.968 274.942 448.4C275.302 448.592 276.286 448.952 277.87 449.456C280.198 450.176 281.686 450.752 282.358 451.136C283.846 452.024 284.59 453.248 284.59 454.832C284.59 456.368 283.99 457.592 282.79 458.48C281.59 459.344 279.886 459.8 277.702 459.8C275.59 459.8 273.934 459.392 272.758 458.576C271.318 457.568 270.526 455.984 270.406 453.8H273.19C273.382 455.096 273.838 456.032 274.582 456.584C275.254 457.064 276.286 457.328 277.702 457.328C278.95 457.328 279.958 457.112 280.678 456.704C281.398 456.272 281.782 455.72 281.782 455C281.782 454.088 281.23 453.368 280.174 452.84C279.838 452.672 278.734 452.288 276.838 451.712C274.726 451.04 273.406 450.56 272.902 450.272C271.582 449.48 270.934 448.328 270.934 446.816C270.934 445.304 271.558 444.104 272.854 443.24C274.054 442.4 275.566 441.992 277.414 441.992Z" fill="white"/>
<path d="M253.677 357.402C250.731 357.402 248.343 359.79 248.343 362.735C248.343 365.681 250.731 368.069 253.677 368.069C256.622 368.069 259.01 365.681 259.01 362.735C259.01 359.79 256.622 357.402 253.677 357.402ZM253.677 362.735L252.677 362.735L252.677 391.314L253.677 391.314L254.677 391.314L254.677 362.735L253.677 362.735Z" fill="#EDF5FE"/>
<circle cx="421.47" cy="158.281" r="59.4554" transform="rotate(60 421.47 158.281)" fill="#3F8EF7" stroke="#EDF5FE" stroke-width="2"/>
<path d="M404.738 149.163L407.93 149.163L414.482 166.299L411.482 166.299L409.922 162.003L402.746 162.003L401.186 166.299L398.186 166.299L404.738 149.163ZM403.586 159.699L409.082 159.699L406.394 152.187L406.298 152.187L403.586 159.699ZM416.155 149.163L418.939 149.163L418.939 163.899L428.203 163.899L428.203 166.299L416.155 166.299L416.155 149.163ZM437.798 148.827C439.814 148.827 441.494 149.355 442.79 150.411C444.038 151.419 444.782 152.811 445.046 154.539L442.31 154.539C442.022 153.411 441.494 152.595 440.702 152.067C439.934 151.539 438.95 151.299 437.75 151.299C435.95 151.299 434.606 151.899 433.694 153.147C432.854 154.251 432.446 155.787 432.446 157.755C432.446 159.771 432.854 161.331 433.67 162.411C434.558 163.563 435.95 164.163 437.822 164.163C439.046 164.163 440.054 163.851 440.822 163.275C441.638 162.627 442.214 161.643 442.55 160.347L445.286 160.347C444.902 162.363 444.014 163.923 442.598 165.051C441.278 166.107 439.694 166.635 437.846 166.635C434.99 166.635 432.854 165.723 431.462 163.947C430.238 162.411 429.638 160.347 429.638 157.755C429.638 155.211 430.262 153.123 431.534 151.539C432.974 149.715 435.062 148.827 437.798 148.827Z" fill="white"/>
<path d="M338.921 204.036C340.394 206.587 343.656 207.461 346.207 205.988C348.758 204.515 349.632 201.253 348.159 198.702C346.686 196.152 343.424 195.278 340.873 196.75C338.322 198.223 337.448 201.485 338.921 204.036ZM343.54 201.369L344.04 202.235L368.79 187.946L368.29 187.08L367.79 186.214L343.04 200.503L343.54 201.369Z" fill="#EDF5FE"/>
<circle cx="82.5872" cy="353.941" r="60.4554" transform="rotate(-120 82.5872 353.941)" fill="#3F8EF7"/>
<path d="M56.7601 343.909L59.5681 343.909L59.5681 361.045L56.7601 361.045L56.7601 343.909ZM68.9722 343.573C70.9882 343.573 72.5722 343.981 73.7002 344.821C74.9002 345.709 75.5962 347.101 75.7642 348.973L72.9802 348.973C72.7402 347.917 72.2842 347.149 71.6602 346.693C71.0362 346.213 70.0762 345.997 68.8282 345.997C67.7482 345.997 66.9322 346.141 66.3562 346.453C65.6362 346.813 65.3002 347.413 65.3002 348.229C65.3002 348.949 65.6842 349.549 66.5002 349.981C66.8602 350.173 67.8442 350.533 69.4282 351.037C71.7562 351.757 73.2442 352.333 73.9162 352.717C75.4042 353.605 76.1482 354.829 76.1482 356.413C76.1482 357.949 75.5482 359.173 74.3482 360.061C73.1482 360.925 71.4442 361.381 69.2602 361.381C67.1482 361.381 65.4922 360.973 64.3162 360.157C62.8762 359.149 62.0842 357.565 61.9642 355.381L64.7482 355.381C64.9402 356.677 65.3962 357.613 66.1402 358.165C66.8122 358.645 67.8442 358.909 69.2602 358.909C70.5082 358.909 71.5162 358.693 72.2362 358.285C72.9562 357.853 73.3402 357.301 73.3402 356.581C73.3402 355.669 72.7882 354.949 71.7322 354.421C71.3962 354.253 70.2922 353.869 68.3962 353.293C66.2842 352.621 64.9642 352.141 64.4602 351.853C63.1402 351.061 62.4922 349.909 62.4922 348.397C62.4922 346.885 63.1162 345.685 64.4122 344.821C65.6122 343.981 67.1242 343.573 68.9722 343.573ZM78.557 343.909L85.661 343.909C89.789 343.909 91.877 345.661 91.877 349.165C91.877 352.693 89.789 354.469 85.613 354.469L81.365 354.469L81.365 361.045L78.557 361.045L78.557 343.909ZM81.365 346.309L81.365 352.069L85.445 352.069C86.693 352.069 87.605 351.829 88.181 351.397C88.757 350.941 89.045 350.197 89.045 349.165C89.045 348.133 88.733 347.413 88.157 346.981C87.581 346.525 86.669 346.309 85.445 346.309L81.365 346.309ZM101.724 343.573C103.74 343.573 105.42 344.101 106.716 345.157C107.964 346.165 108.708 347.557 108.972 349.285L106.236 349.285C105.948 348.157 105.42 347.341 104.628 346.813C103.86 346.285 102.876 346.045 101.676 346.045C99.8756 346.045 98.5316 346.645 97.6196 347.893C96.7796 348.997 96.3716 350.533 96.3716 352.501C96.3716 354.517 96.7796 356.077 97.5956 357.157C98.4836 358.309 99.8756 358.909 101.748 358.909C102.972 358.909 103.98 358.597 104.748 358.021C105.564 357.373 106.14 356.389 106.476 355.093L109.212 355.093C108.828 357.109 107.94 358.669 106.524 359.797C105.204 360.853 103.62 361.381 101.772 361.381C98.9156 361.381 96.7796 360.469 95.3876 358.693C94.1636 357.157 93.5636 355.093 93.5636 352.501C93.5636 349.957 94.1876 347.869 95.4596 346.285C96.8996 344.461 98.9876 343.573 101.724 343.573Z" fill="white"/>
<path d="M165.136 308.186C163.663 305.635 160.401 304.761 157.85 306.234C155.3 307.706 154.426 310.968 155.898 313.519C157.371 316.07 160.633 316.944 163.184 315.471C165.735 313.999 166.609 310.737 165.136 308.186ZM160.517 310.853L160.017 309.987L135.267 324.276L135.767 325.142L136.267 326.008L161.017 311.719L160.517 310.853Z" fill="#EDF5FE"/>
<circle cx="421.472" cy="353.936" r="59.4554" transform="rotate(120 421.472 353.936)" fill="#3F8EF7" stroke="#EDF5FE" stroke-width="2"/>
<path d="M391.766 343.908H394.934L398.15 356.94H398.246L401.63 343.908H404.534L407.918 356.94H408.014L411.23 343.908H414.398L409.454 361.044H406.478L403.142 348.156H403.046L399.686 361.044H396.686L391.766 343.908ZM416.201 343.908H419.489L425.321 357.348H425.417L431.225 343.908H434.513V361.044H431.705V349.236H431.609L426.569 361.044H424.145L419.105 349.236H419.009V361.044H416.201V343.908ZM443.928 343.572C445.944 343.572 447.528 343.98 448.656 344.82C449.856 345.708 450.552 347.1 450.72 348.972H447.936C447.696 347.916 447.24 347.148 446.616 346.692C445.992 346.212 445.032 345.996 443.784 345.996C442.704 345.996 441.888 346.14 441.312 346.452C440.592 346.812 440.256 347.412 440.256 348.228C440.256 348.948 440.64 349.548 441.456 349.98C441.816 350.172 442.8 350.532 444.384 351.036C446.712 351.756 448.2 352.332 448.872 352.716C450.36 353.604 451.104 354.828 451.104 356.412C451.104 357.948 450.504 359.172 449.304 360.06C448.104 360.924 446.4 361.38 444.216 361.38C442.104 361.38 440.448 360.972 439.272 360.156C437.832 359.148 437.04 357.564 436.92 355.38H439.704C439.896 356.676 440.352 357.612 441.096 358.164C441.768 358.644 442.8 358.908 444.216 358.908C445.464 358.908 446.472 358.692 447.192 358.284C447.912 357.852 448.296 357.3 448.296 356.58C448.296 355.668 447.744 354.948 446.688 354.42C446.352 354.252 445.248 353.868 443.352 353.292C441.24 352.62 439.92 352.14 439.416 351.852C438.096 351.06 437.448 349.908 437.448 348.396C437.448 346.884 438.072 345.684 439.368 344.82C440.568 343.98 442.08 343.572 443.928 343.572Z" fill="white"/>
<path d="M340.571 305.324C339.098 307.874 339.972 311.136 342.523 312.609C345.074 314.082 348.336 313.208 349.809 310.657C351.282 308.106 350.408 304.844 347.857 303.371C345.306 301.899 342.044 302.773 340.571 305.324ZM345.19 307.99L344.69 308.856L369.44 323.146L369.94 322.28L370.44 321.414L345.69 307.124L345.19 307.99Z" fill="#EDF5FE"/>
<circle cx="82.5836" cy="158.287" r="59.4554" transform="rotate(-60 82.5836 158.287)" fill="#3F8EF7" stroke="#EDF5FE" stroke-width="2"/>
<path d="M54.028 149.165H65.716V151.565H56.836V156.317H65.212V158.717H56.836V166.301H54.028V149.165ZM72.8688 149.165H76.0608L82.6128 166.301H79.6128L78.0528 162.005H70.8768L69.3168 166.301H66.3168L72.8688 149.165ZM71.7168 159.701H77.2128L74.5248 152.189H74.4288L71.7168 159.701ZM90.3338 148.829C92.3498 148.829 93.9338 149.237 95.0618 150.077C96.2618 150.965 96.9578 152.357 97.1258 154.229H94.3418C94.1018 153.173 93.6458 152.405 93.0218 151.949C92.3978 151.469 91.4378 151.253 90.1898 151.253C89.1098 151.253 88.2938 151.397 87.7178 151.709C86.9978 152.069 86.6618 152.669 86.6618 153.485C86.6618 154.205 87.0458 154.805 87.8618 155.237C88.2218 155.429 89.2058 155.789 90.7898 156.293C93.1178 157.013 94.6058 157.589 95.2778 157.973C96.7658 158.861 97.5098 160.085 97.5098 161.669C97.5098 163.205 96.9098 164.429 95.7098 165.317C94.5098 166.181 92.8058 166.637 90.6218 166.637C88.5098 166.637 86.8538 166.229 85.6778 165.413C84.2378 164.405 83.4458 162.821 83.3258 160.637H86.1098C86.3018 161.933 86.7578 162.869 87.5018 163.421C88.1738 163.901 89.2058 164.165 90.6218 164.165C91.8698 164.165 92.8778 163.949 93.5978 163.541C94.3178 163.109 94.7018 162.557 94.7018 161.837C94.7018 160.925 94.1498 160.205 93.0938 159.677C92.7578 159.509 91.6538 159.125 89.7578 158.549C87.6458 157.877 86.3258 157.397 85.8218 157.109C84.5018 156.317 83.8538 155.165 83.8538 153.653C83.8538 152.141 84.4778 150.941 85.7738 150.077C86.9738 149.237 88.4858 148.829 90.3338 148.829ZM98.5986 149.165H112.639V151.565H107.023V166.301H104.215V151.565H98.5986V149.165Z" fill="white"/>
<path d="M163.485 206.898C164.957 204.347 164.083 201.085 161.532 199.613C158.981 198.14 155.72 199.014 154.247 201.565C152.774 204.116 153.648 207.377 156.199 208.85C158.75 210.323 162.012 209.449 163.485 206.898ZM158.866 204.231L159.366 203.365L134.616 189.076L134.116 189.942L133.616 190.808L158.366 205.097L158.866 204.231Z" fill="#EDF5FE"/>
</svg>
