<svg width="1279" height="246" viewBox="0 0 1279 246" fill="none" xmlns="http://www.w3.org/2000/svg">
<rect y="44" width="103.757" height="202" rx="6" fill="#EDEDED" fill-opacity="0.5"/>
<rect x="426.997" y="44" width="102.759" height="202" rx="6" fill="#EDEDED" fill-opacity="0.5"/>
<rect x="855.992" y="44" width="102.759" height="202" rx="6" fill="#EDEDED" fill-opacity="0.5"/>
<rect x="107.746" y="44" width="102.759" height="202" rx="6" fill="#EDEDED" fill-opacity="0.5"/>
<rect x="533.747" y="44" width="104.754" height="202" rx="6" fill="#EDEDED" fill-opacity="0.5"/>
<rect x="962.741" y="44" width="102.759" height="202" rx="6" fill="#EDEDED" fill-opacity="0.5"/>
<rect x="214.498" y="44" width="102.759" height="202" rx="6" fill="#EDEDED" fill-opacity="0.5"/>
<rect x="642.492" y="44" width="103.757" height="202" rx="6" fill="#EDEDED" fill-opacity="0.5"/>
<rect x="1069.49" y="44" width="102.759" height="202" rx="6" fill="#EDEDED" fill-opacity="0.5"/>
<rect x="321.247" y="44" width="101.761" height="202" rx="6" fill="#EDEDED" fill-opacity="0.5"/>
<rect x="750.238" y="44" width="101.761" height="202" rx="6" fill="#EDEDED" fill-opacity="0.5"/>
<rect x="1176.24" y="44" width="102.759" height="202" rx="6" fill="#EDEDED" fill-opacity="0.5"/>
<rect width="211.504" height="28" rx="3" fill="#EDEDED"/>
<path d="M95.1089 6.72H97.7689L103.229 21H100.729L99.4289 17.42H93.4489L92.1489 21H89.6489L95.1089 6.72ZM94.1489 15.5H98.7289L96.4889 9.24H96.4089L94.1489 15.5ZM109.223 10.38C110.743 10.38 111.943 10.92 112.823 12C113.623 13 114.023 14.28 114.023 15.88C114.023 17.4 113.623 18.66 112.843 19.66C112.003 20.74 110.823 21.28 109.343 21.28C108.143 21.28 107.103 20.7 106.263 19.58V24.96H103.983V10.66H106.103V11.76C106.823 10.84 107.863 10.38 109.223 10.38ZM108.883 12.22C107.983 12.22 107.303 12.56 106.823 13.28C106.383 13.9 106.183 14.72 106.183 15.76V15.92C106.183 17 106.443 17.88 106.983 18.54C107.463 19.14 108.063 19.44 108.803 19.44C109.803 19.44 110.563 19.1 111.043 18.46C111.463 17.86 111.683 17 111.683 15.88C111.683 14.76 111.483 13.9 111.103 13.3C110.623 12.58 109.883 12.22 108.883 12.22ZM120.454 10.38C120.954 10.38 121.394 10.46 121.754 10.64V12.92C121.234 12.76 120.754 12.7 120.274 12.7C119.674 12.7 119.134 12.92 118.654 13.4C118.094 13.94 117.834 14.64 117.834 15.52V21H115.574V10.66H117.834V12.14C118.114 11.62 118.434 11.22 118.814 10.94C119.274 10.56 119.814 10.38 120.454 10.38Z" fill="#3B3B3B"/>
<rect x="426.997" width="211.504" height="28" rx="3" fill="#EDEDED"/>
<path d="M523.197 6.72H525.537V16.38C525.537 18.02 525.197 19.22 524.517 20.02C523.757 20.86 522.557 21.28 520.897 21.28C519.457 21.28 518.357 20.88 517.617 20.08C516.857 19.28 516.477 18.18 516.477 16.78V16.32H518.817V16.76C518.817 18.4 519.517 19.22 520.937 19.22C521.717 19.22 522.297 18.98 522.657 18.52C523.017 18.06 523.197 17.32 523.197 16.3V6.72ZM527.698 10.66H529.978V16.96C529.978 17.8 530.138 18.4 530.498 18.8C530.858 19.18 531.418 19.38 532.218 19.38C532.718 19.38 533.198 19.16 533.658 18.74C534.118 18.3 534.458 17.72 534.658 16.98V10.66H536.938V21H534.658V19.66C533.778 20.74 532.698 21.28 531.418 21.28C528.938 21.28 527.698 19.88 527.698 17.1V10.66ZM544.239 10.38C546.819 10.38 548.119 11.78 548.119 14.62V21H545.839V14.82C545.839 13.12 545.059 12.28 543.499 12.28C542.939 12.28 542.439 12.48 542.019 12.88C541.539 13.32 541.259 13.96 541.179 14.78V21H538.899V10.66H541.179V11.86C541.579 11.38 542.039 11 542.539 10.76C543.059 10.5 543.619 10.38 544.239 10.38Z" fill="#3B3B3B"/>
<rect x="853.993" width="211.504" height="28" rx="3" fill="#EDEDED"/>
<path d="M947.022 6.72H949.682L955.142 21H952.642L951.342 17.42H945.362L944.062 21H941.562L947.022 6.72ZM946.062 15.5H950.642L948.402 9.24H948.322L946.062 15.5ZM955.896 10.66H958.176V16.96C958.176 17.8 958.336 18.4 958.696 18.8C959.056 19.18 959.616 19.38 960.416 19.38C960.916 19.38 961.396 19.16 961.856 18.74C962.316 18.3 962.656 17.72 962.856 16.98V10.66H965.136V21H962.856V19.66C961.976 20.74 960.896 21.28 959.616 21.28C957.136 21.28 955.896 19.88 955.896 17.1V10.66ZM971.397 10.38C972.677 10.38 973.697 10.88 974.457 11.92V10.66H976.737V20.34C976.737 23.6 975.117 25.24 971.877 25.24C970.417 25.24 969.317 24.96 968.557 24.44C967.797 23.88 967.317 23.04 967.117 21.88H969.397C969.517 22.46 969.757 22.86 970.137 23.1C970.497 23.32 971.077 23.44 971.877 23.44C973.597 23.44 974.457 22.52 974.457 20.68V19.16C973.697 20.22 972.677 20.76 971.397 20.76C969.997 20.76 968.857 20.28 967.997 19.36C967.117 18.42 966.697 17.16 966.697 15.6C966.697 14.04 967.117 12.78 967.997 11.82C968.857 10.86 969.997 10.38 971.397 10.38ZM971.757 12.22C970.897 12.22 970.237 12.52 969.757 13.12C969.277 13.7 969.037 14.52 969.037 15.6C969.037 16.58 969.217 17.34 969.597 17.9C970.037 18.56 970.737 18.9 971.737 18.9C972.617 18.9 973.297 18.6 973.777 18.04C974.237 17.44 974.477 16.64 974.477 15.6C974.477 14.54 974.237 13.72 973.777 13.12C973.297 12.52 972.617 12.22 971.757 12.22Z" fill="#3B3B3B"/>
<rect x="213.498" width="211.504" height="28" rx="3" fill="#EDEDED"/>
<path d="M301.07 6.72H303.81L308.67 17.92H308.75L313.59 6.72H316.33V21H313.99V11.16H313.91L309.71 21H307.69L303.49 11.16H303.41V21H301.07V6.72ZM323.197 10.38C324.717 10.38 325.857 10.76 326.577 11.52C327.217 12.18 327.537 13.14 327.537 14.4V21H325.417V19.64C325.017 20.16 324.517 20.54 323.937 20.82C323.277 21.12 322.497 21.28 321.597 21.28C320.517 21.28 319.677 21 319.057 20.46C318.417 19.9 318.097 19.2 318.097 18.34C318.097 17.18 318.537 16.28 319.457 15.66C320.297 15.06 321.477 14.74 322.997 14.7L325.257 14.64V14.24C325.257 12.88 324.517 12.22 323.037 12.22C322.397 12.22 321.897 12.32 321.517 12.56C321.077 12.82 320.777 13.22 320.657 13.76L318.397 13.58C318.617 12.44 319.177 11.6 320.077 11.08C320.837 10.6 321.877 10.38 323.197 10.38ZM325.257 16.28L323.157 16.34C321.337 16.38 320.437 17.02 320.437 18.26C320.437 18.62 320.577 18.92 320.897 19.16C321.217 19.4 321.617 19.54 322.117 19.54C322.997 19.54 323.737 19.28 324.337 18.78C324.937 18.26 325.257 17.6 325.257 16.8V16.28ZM328.402 10.66H330.882L333.622 18.02L336.242 10.66H338.722L333.122 24.96H330.682L332.502 20.76L328.402 10.66Z" fill="#3B3B3B"/>
<rect x="640.497" width="211.504" height="28" rx="3" fill="#EDEDED"/>
<path d="M739.968 6.72H742.308V16.38C742.308 18.02 741.968 19.22 741.288 20.02C740.528 20.86 739.328 21.28 737.668 21.28C736.228 21.28 735.128 20.88 734.388 20.08C733.628 19.28 733.248 18.18 733.248 16.78V16.32H735.588V16.76C735.588 18.4 736.288 19.22 737.708 19.22C738.488 19.22 739.068 18.98 739.428 18.52C739.788 18.06 739.968 17.32 739.968 16.3V6.72ZM744.47 10.66H746.75V16.96C746.75 17.8 746.91 18.4 747.27 18.8C747.63 19.18 748.19 19.38 748.99 19.38C749.49 19.38 749.97 19.16 750.43 18.74C750.89 18.3 751.23 17.72 751.43 16.98V10.66H753.71V21H751.43V19.66C750.55 20.74 749.47 21.28 748.19 21.28C745.71 21.28 744.47 19.88 744.47 17.1V10.66ZM755.871 6.44H758.151V21H755.871V6.44Z" fill="#3B3B3B"/>
<rect x="1067.49" width="211.504" height="28" rx="3" fill="#EDEDED"/>
<path d="M1158.52 6.44C1160.2 6.44 1161.52 6.78 1162.46 7.48C1163.46 8.22 1164.04 9.38 1164.18 10.94H1161.86C1161.66 10.06 1161.28 9.42 1160.76 9.04C1160.24 8.64 1159.44 8.46 1158.4 8.46C1157.5 8.46 1156.82 8.58 1156.34 8.84C1155.74 9.14 1155.46 9.64 1155.46 10.32C1155.46 10.92 1155.78 11.42 1156.46 11.78C1156.76 11.94 1157.58 12.24 1158.9 12.66C1160.84 13.26 1162.08 13.74 1162.64 14.06C1163.88 14.8 1164.5 15.82 1164.5 17.14C1164.5 18.42 1164 19.44 1163 20.18C1162 20.9 1160.58 21.28 1158.76 21.28C1157 21.28 1155.62 20.94 1154.64 20.26C1153.44 19.42 1152.78 18.1 1152.68 16.28H1155C1155.16 17.36 1155.54 18.14 1156.16 18.6C1156.72 19 1157.58 19.22 1158.76 19.22C1159.8 19.22 1160.64 19.04 1161.24 18.7C1161.84 18.34 1162.16 17.88 1162.16 17.28C1162.16 16.52 1161.7 15.92 1160.82 15.48C1160.54 15.34 1159.62 15.02 1158.04 14.54C1156.28 13.98 1155.18 13.58 1154.76 13.34C1153.66 12.68 1153.12 11.72 1153.12 10.46C1153.12 9.2 1153.64 8.2 1154.72 7.48C1155.72 6.78 1156.98 6.44 1158.52 6.44ZM1170.27 10.38C1171.97 10.38 1173.27 10.94 1174.17 12.1C1174.99 13.14 1175.41 14.6 1175.41 16.46H1167.67C1167.75 17.42 1168.01 18.16 1168.45 18.66C1168.89 19.16 1169.53 19.42 1170.35 19.42C1171.05 19.42 1171.61 19.26 1172.05 18.94C1172.39 18.68 1172.69 18.26 1172.97 17.68H1175.25C1175.01 18.64 1174.53 19.46 1173.81 20.1C1172.89 20.88 1171.75 21.28 1170.37 21.28C1168.83 21.28 1167.61 20.8 1166.71 19.86C1165.75 18.88 1165.27 17.54 1165.27 15.82C1165.27 14.28 1165.71 13 1166.63 11.96C1167.51 10.9 1168.73 10.38 1170.27 10.38ZM1170.33 12.24C1169.57 12.24 1168.99 12.44 1168.55 12.88C1168.13 13.3 1167.85 13.92 1167.71 14.74H1173.03C1172.83 13.06 1171.93 12.24 1170.33 12.24ZM1182.01 10.38C1183.53 10.38 1184.73 10.92 1185.61 12C1186.41 13 1186.81 14.28 1186.81 15.88C1186.81 17.4 1186.41 18.66 1185.63 19.66C1184.79 20.74 1183.61 21.28 1182.13 21.28C1180.93 21.28 1179.89 20.7 1179.05 19.58V24.96H1176.77V10.66H1178.89V11.76C1179.61 10.84 1180.65 10.38 1182.01 10.38ZM1181.67 12.22C1180.77 12.22 1180.09 12.56 1179.61 13.28C1179.17 13.9 1178.97 14.72 1178.97 15.76V15.92C1178.97 17 1179.23 17.88 1179.77 18.54C1180.25 19.14 1180.85 19.44 1181.59 19.44C1182.59 19.44 1183.35 19.1 1183.83 18.46C1184.25 17.86 1184.47 17 1184.47 15.88C1184.47 14.76 1184.27 13.9 1183.89 13.3C1183.41 12.58 1182.67 12.22 1181.67 12.22ZM1191.61 7.32V10.66H1193.91V12.54H1191.61V18.38C1191.61 18.62 1191.65 18.8 1191.77 18.94C1191.89 19.06 1192.05 19.12 1192.29 19.12H1193.65V21H1191.91C1191.01 21 1190.35 20.76 1189.93 20.28C1189.53 19.84 1189.33 19.22 1189.33 18.38V12.54H1187.47V10.66H1189.33V8.26L1191.61 7.32Z" fill="#3B3B3B"/>
<rect y="44" width="638.502" height="34" rx="3" fill="#3F8EF7"/>
<path d="M9.12 55.576H17.328V57.064H10.864V60.392H16.944V61.88H10.864V65.512H17.6V67H9.12V55.576ZM23.098 58.504C25.146 58.504 26.186 59.624 26.186 61.896V67H24.49V62.04C24.49 60.632 23.834 59.928 22.554 59.928C22.074 59.928 21.642 60.088 21.29 60.44C20.906 60.824 20.666 61.352 20.602 62.024V67H18.906V58.728H20.602V59.752C20.922 59.336 21.29 59.032 21.706 58.824C22.122 58.6 22.586 58.504 23.098 58.504ZM31.2608 58.504C32.3488 58.504 33.1808 58.936 33.7888 59.832V58.728H35.4848V66.456C35.4848 69.08 34.1888 70.392 31.6288 70.392C30.4768 70.392 29.5968 70.168 28.9888 69.736C28.3808 69.288 28.0128 68.616 27.8528 67.704H29.5488C29.6448 68.184 29.8368 68.536 30.1568 68.744C30.4608 68.936 30.9568 69.048 31.6288 69.048C33.0688 69.048 33.7888 68.264 33.7888 66.712V65.432C33.1808 66.344 32.3488 66.808 31.2608 66.808C30.1408 66.808 29.2288 66.424 28.5408 65.672C27.8368 64.92 27.5008 63.928 27.5008 62.68C27.5008 61.432 27.8368 60.44 28.5408 59.672C29.2288 58.888 30.1408 58.504 31.2608 58.504ZM31.5168 59.88C30.7968 59.88 30.2368 60.12 29.8528 60.632C29.4368 61.112 29.2448 61.8 29.2448 62.68C29.2448 63.48 29.4048 64.12 29.7248 64.584C30.0928 65.128 30.6848 65.416 31.5168 65.416C32.2368 65.416 32.7968 65.176 33.2128 64.696C33.5968 64.2 33.8048 63.528 33.8048 62.68C33.8048 61.816 33.5968 61.128 33.2128 60.632C32.7968 60.12 32.2368 59.88 31.5168 59.88ZM38.2949 55.416C38.6309 55.416 38.9189 55.512 39.1429 55.736C39.3669 55.944 39.4789 56.216 39.4789 56.552C39.4789 56.888 39.3509 57.16 39.1269 57.384C38.9029 57.592 38.6149 57.704 38.2949 57.704C37.9589 57.704 37.6869 57.592 37.4629 57.384C37.2389 57.16 37.1269 56.872 37.1269 56.552C37.1269 56.216 37.2389 55.944 37.4629 55.736C37.6869 55.512 37.9589 55.416 38.2949 55.416ZM37.4469 58.728H39.1429V67H37.4469V58.728ZM45.3266 58.504C47.3746 58.504 48.4146 59.624 48.4146 61.896V67H46.7186V62.04C46.7186 60.632 46.0626 59.928 44.7826 59.928C44.3026 59.928 43.8706 60.088 43.5186 60.44C43.1346 60.824 42.8946 61.352 42.8306 62.024V67H41.1346V58.728H42.8306V59.752C43.1506 59.336 43.5186 59.032 43.9346 58.824C44.3506 58.6 44.8146 58.504 45.3266 58.504ZM53.5534 58.504C54.8974 58.504 55.9374 58.952 56.6414 59.88C57.2814 60.712 57.6174 61.864 57.6334 63.336H51.3614C51.4254 64.136 51.6334 64.76 52.0174 65.192C52.4014 65.608 52.9294 65.832 53.6014 65.832C54.1934 65.832 54.6734 65.688 55.0414 65.416C55.3294 65.192 55.5694 64.824 55.7934 64.344H57.4894C57.2974 65.112 56.9294 65.768 56.3534 66.28C55.6334 66.904 54.7214 67.224 53.6174 67.224C52.4014 67.224 51.4254 66.84 50.7214 66.088C49.9534 65.288 49.5694 64.216 49.5694 62.856C49.5694 61.624 49.9214 60.6 50.6574 59.768C51.3614 58.92 52.3374 58.504 53.5534 58.504ZM53.6014 59.896C52.9614 59.896 52.4654 60.072 52.0814 60.456C51.7294 60.824 51.4894 61.352 51.3934 62.056H55.8574C55.6974 60.616 54.9454 59.896 53.6014 59.896ZM61.5286 55.576H62.8406V67H61.0966V57.672C60.4086 58.328 59.5286 58.808 58.4726 59.112V57.384C58.9846 57.256 59.5126 57.032 60.0886 56.712C60.6646 56.36 61.1446 55.992 61.5286 55.576ZM66.2199 64.712C66.5399 64.712 66.8279 64.824 67.0679 65.048C67.2919 65.272 67.4199 65.56 67.4199 65.912C67.4199 66.232 67.2919 66.52 67.0679 66.76C66.8279 66.968 66.5399 67.08 66.2199 67.08C65.8679 67.08 65.5959 66.968 65.3879 66.76C65.1479 66.52 65.0359 66.232 65.0359 65.912C65.0359 65.56 65.1479 65.272 65.3879 65.048C65.5959 64.824 65.8679 64.712 66.2199 64.712ZM72.8993 55.352C74.2433 55.352 75.2833 55.912 76.0193 57.048C76.6913 58.104 77.0273 59.512 77.0273 61.288C77.0273 63.048 76.6913 64.472 76.0193 65.528C75.2833 66.648 74.2433 67.224 72.8993 67.224C71.5553 67.224 70.5153 66.648 69.7793 65.528C69.1073 64.472 68.7713 63.064 68.7713 61.288C68.7713 59.496 69.1073 58.088 69.7793 57.048C70.5153 55.912 71.5553 55.352 72.8993 55.352ZM72.8993 56.824C71.9553 56.824 71.2993 57.336 70.9153 58.376C70.6273 59.08 70.4993 60.056 70.4993 61.288C70.4993 62.504 70.6273 63.48 70.9153 64.2C71.2993 65.224 71.9553 65.752 72.8993 65.752C73.8273 65.752 74.4993 65.224 74.8833 64.2C75.1553 63.48 75.2993 62.504 75.2993 61.288C75.2993 60.056 75.1553 59.08 74.8833 58.376C74.4993 57.336 73.8273 56.824 72.8993 56.824Z" fill="white"/>
<rect x="638.501" y="128" width="639.499" height="34" rx="3" fill="#3F8EF7"/>
<path d="M647.621 139.576H655.829V141.064H649.365V144.392H655.445V145.88H649.365V149.512H656.101V151H647.621V139.576ZM661.599 142.504C663.647 142.504 664.687 143.624 664.687 145.896V151H662.991V146.04C662.991 144.632 662.335 143.928 661.055 143.928C660.575 143.928 660.143 144.088 659.791 144.44C659.407 144.824 659.167 145.352 659.103 146.024V151H657.407V142.728H659.103V143.752C659.423 143.336 659.791 143.032 660.207 142.824C660.623 142.6 661.087 142.504 661.599 142.504ZM669.762 142.504C670.85 142.504 671.682 142.936 672.29 143.832V142.728H673.986V150.456C673.986 153.08 672.69 154.392 670.13 154.392C668.978 154.392 668.098 154.168 667.49 153.736C666.882 153.288 666.514 152.616 666.354 151.704H668.05C668.146 152.184 668.338 152.536 668.658 152.744C668.962 152.936 669.458 153.048 670.13 153.048C671.57 153.048 672.29 152.264 672.29 150.712V149.432C671.682 150.344 670.85 150.808 669.762 150.808C668.642 150.808 667.73 150.424 667.042 149.672C666.338 148.92 666.002 147.928 666.002 146.68C666.002 145.432 666.338 144.44 667.042 143.672C667.73 142.888 668.642 142.504 669.762 142.504ZM670.018 143.88C669.298 143.88 668.738 144.12 668.354 144.632C667.938 145.112 667.746 145.8 667.746 146.68C667.746 147.48 667.906 148.12 668.226 148.584C668.594 149.128 669.186 149.416 670.018 149.416C670.738 149.416 671.298 149.176 671.714 148.696C672.098 148.2 672.306 147.528 672.306 146.68C672.306 145.816 672.098 145.128 671.714 144.632C671.298 144.12 670.738 143.88 670.018 143.88ZM676.796 139.416C677.132 139.416 677.42 139.512 677.644 139.736C677.868 139.944 677.98 140.216 677.98 140.552C677.98 140.888 677.852 141.16 677.628 141.384C677.404 141.592 677.116 141.704 676.796 141.704C676.46 141.704 676.188 141.592 675.964 141.384C675.74 141.16 675.628 140.872 675.628 140.552C675.628 140.216 675.74 139.944 675.964 139.736C676.188 139.512 676.46 139.416 676.796 139.416ZM675.948 142.728H677.644V151H675.948V142.728ZM683.828 142.504C685.876 142.504 686.916 143.624 686.916 145.896V151H685.22V146.04C685.22 144.632 684.564 143.928 683.284 143.928C682.804 143.928 682.372 144.088 682.02 144.44C681.636 144.824 681.396 145.352 681.332 146.024V151H679.636V142.728H681.332V143.752C681.652 143.336 682.02 143.032 682.436 142.824C682.852 142.6 683.316 142.504 683.828 142.504ZM692.055 142.504C693.399 142.504 694.439 142.952 695.143 143.88C695.783 144.712 696.119 145.864 696.135 147.336H689.863C689.927 148.136 690.135 148.76 690.519 149.192C690.903 149.608 691.431 149.832 692.103 149.832C692.695 149.832 693.175 149.688 693.543 149.416C693.831 149.192 694.071 148.824 694.295 148.344H695.991C695.799 149.112 695.431 149.768 694.855 150.28C694.135 150.904 693.223 151.224 692.119 151.224C690.903 151.224 689.927 150.84 689.223 150.088C688.455 149.288 688.071 148.216 688.071 146.856C688.071 145.624 688.423 144.6 689.159 143.768C689.863 142.92 690.839 142.504 692.055 142.504ZM692.103 143.896C691.463 143.896 690.967 144.072 690.583 144.456C690.231 144.824 689.991 145.352 689.895 146.056H694.359C694.199 144.616 693.447 143.896 692.103 143.896ZM701.294 139.352C702.382 139.352 703.294 139.656 703.998 140.296C704.686 140.936 705.038 141.752 705.038 142.76C705.038 143.752 704.654 144.648 703.918 145.464C703.47 145.928 702.686 146.536 701.55 147.304C700.318 148.12 699.582 148.84 699.342 149.464H705.054V151H697.182C697.182 149.864 697.55 148.872 698.318 148.008C698.734 147.512 699.598 146.824 700.894 145.928C701.662 145.384 702.206 144.952 702.526 144.616C703.038 144.04 703.31 143.416 703.31 142.744C703.31 142.104 703.134 141.624 702.782 141.304C702.43 140.984 701.902 140.824 701.23 140.824C700.51 140.824 699.966 141.064 699.598 141.56C699.214 142.04 699.022 142.728 698.99 143.656H697.246C697.262 142.376 697.63 141.352 698.35 140.584C699.086 139.752 700.078 139.352 701.294 139.352ZM707.784 148.712C708.104 148.712 708.392 148.824 708.632 149.048C708.856 149.272 708.984 149.56 708.984 149.912C708.984 150.232 708.856 150.52 708.632 150.76C708.392 150.968 708.104 151.08 707.784 151.08C707.432 151.08 707.16 150.968 706.952 150.76C706.712 150.52 706.6 150.232 706.6 149.912C706.6 149.56 706.712 149.272 706.952 149.048C707.16 148.824 707.432 148.712 707.784 148.712ZM714.463 139.352C715.807 139.352 716.847 139.912 717.583 141.048C718.255 142.104 718.591 143.512 718.591 145.288C718.591 147.048 718.255 148.472 717.583 149.528C716.847 150.648 715.807 151.224 714.463 151.224C713.119 151.224 712.079 150.648 711.343 149.528C710.671 148.472 710.335 147.064 710.335 145.288C710.335 143.496 710.671 142.088 711.343 141.048C712.079 139.912 713.119 139.352 714.463 139.352ZM714.463 140.824C713.519 140.824 712.863 141.336 712.479 142.376C712.191 143.08 712.063 144.056 712.063 145.288C712.063 146.504 712.191 147.48 712.479 148.2C712.863 149.224 713.519 149.752 714.463 149.752C715.391 149.752 716.063 149.224 716.447 148.2C716.719 147.48 716.863 146.504 716.863 145.288C716.863 144.056 716.719 143.08 716.447 142.376C716.063 141.336 715.391 140.824 714.463 140.824Z" fill="white"/>
<rect x="1067.49" y="212" width="211.504" height="34" rx="3" fill="#3F8EF7"/>
<path d="M1100.45 221.976H1101.94V223.464H1105.09V224.856H1101.94V226.376H1105.7V227.816H1096.87V226.376H1100.45V224.856H1097.45V223.464H1100.45V221.976ZM1096.61 229.512H1102.31V228.408H1103.83V229.512H1105.72V230.936H1103.83V234.936C1103.83 235.992 1103.3 236.536 1102.25 236.536H1100.13L1099.8 235.064C1100.47 235.112 1101.09 235.144 1101.7 235.144C1102.1 235.144 1102.31 234.936 1102.31 234.552V230.936H1096.61V229.512ZM1093.21 236.504H1091.8L1091.48 235.048C1091.89 235.112 1092.29 235.144 1092.68 235.144C1093.06 235.144 1093.27 234.936 1093.27 234.52V231.176C1092.71 231.368 1092.15 231.56 1091.57 231.736L1091.19 230.2C1091.89 230.04 1092.58 229.848 1093.27 229.624V226.28H1091.45V224.824H1093.27V222.088H1094.76V224.824H1096.29V226.28H1094.76V229.064C1095.29 228.824 1095.8 228.568 1096.31 228.312V229.864C1095.8 230.12 1095.27 230.36 1094.76 230.584V234.904C1094.76 235.96 1094.23 236.504 1093.21 236.504ZM1098.57 231.448C1099.32 232.392 1099.89 233.224 1100.29 233.944L1099.09 234.776C1098.66 234.008 1098.07 233.144 1097.33 232.2L1098.57 231.448ZM1112.01 233.048V234.488C1110.63 235.048 1109.06 235.496 1107.32 235.848L1107.14 234.36C1109 234.04 1110.61 233.592 1112.01 233.048ZM1109.35 221.848L1110.79 222.408C1110.1 224.264 1109.4 225.784 1108.69 226.952C1109.21 226.888 1109.72 226.808 1110.25 226.712C1110.5 226.2 1110.79 225.656 1111.08 225.096L1112.47 225.624C1111.19 227.976 1110.12 229.704 1109.25 230.792C1110.09 230.6 1110.93 230.344 1111.8 230.04V231.416C1110.26 231.928 1108.81 232.28 1107.43 232.472L1107.01 231.096C1107.29 231 1107.51 230.856 1107.7 230.664C1108.18 230.168 1108.77 229.304 1109.48 228.088C1108.77 228.2 1108.04 228.312 1107.3 228.424L1106.93 227.048C1107.16 226.952 1107.37 226.776 1107.56 226.488C1108.23 225.096 1108.84 223.544 1109.35 221.848ZM1113.11 222.792H1116.2V221.848H1117.67V222.792H1120.98V224.168H1117.67V225.272H1121.25V226.216C1121.03 227.24 1120.73 228.248 1120.36 229.24L1118.9 228.824C1119.22 228.2 1119.48 227.48 1119.7 226.68H1112.61V225.272H1116.2V224.168H1113.11V222.792ZM1112.26 231.032H1114.55C1113.81 230.408 1113.08 229.912 1112.33 229.528L1113.03 228.488C1113.88 228.904 1114.66 229.4 1115.37 230.008L1114.69 231.032H1116.58C1116.61 230.744 1116.65 230.44 1116.66 230.136V227.112H1118.13V230.136C1118.12 230.456 1118.1 230.744 1118.07 231.032H1121.65V232.44H1117.8C1117.73 232.632 1117.69 232.808 1117.62 232.968C1119.13 233.672 1120.52 234.488 1121.78 235.416L1120.93 236.728C1119.65 235.64 1118.37 234.776 1117.06 234.104C1117 234.216 1116.92 234.328 1116.85 234.424C1116.09 235.416 1114.82 236.184 1113.09 236.728L1112.25 235.4C1113.93 234.888 1115.06 234.232 1115.67 233.432C1115.88 233.128 1116.05 232.792 1116.21 232.44H1112.26V231.032ZM1114.28 226.872C1115.06 227.24 1115.78 227.704 1116.45 228.264L1115.75 229.336C1115.05 228.696 1114.33 228.216 1113.61 227.864L1114.28 226.872ZM1136.84 223.464V227.24H1135.29V224.936H1124.6V227.24H1123.05V223.464H1129.03C1128.87 222.984 1128.68 222.552 1128.49 222.168L1130.2 221.88C1130.39 222.344 1130.57 222.872 1130.74 223.464H1136.84ZM1125.4 226.472H1134.45V227.928H1125.4V226.472ZM1122.95 229.448H1136.98V230.904H1132.61V234.248C1132.61 234.728 1132.81 234.984 1133.22 234.984H1135.24C1135.43 234.984 1135.56 234.872 1135.65 234.664C1135.75 234.44 1135.81 233.768 1135.86 232.648L1137.3 233.096C1137.17 234.712 1136.98 235.672 1136.71 235.976C1136.45 236.264 1136.05 236.424 1135.51 236.424H1132.74C1131.64 236.424 1131.09 235.8 1131.09 234.568V230.904H1128.69V230.952C1128.63 232.52 1128.18 233.784 1127.38 234.728C1126.6 235.592 1125.32 236.28 1123.54 236.76L1122.68 235.4C1124.39 234.968 1125.56 234.408 1126.2 233.736C1126.79 233.016 1127.13 232.088 1127.19 230.952V230.904H1122.95V229.448ZM1139.17 223.192H1142.47C1142.25 222.792 1141.99 222.424 1141.72 222.088L1143.41 221.8C1143.64 222.216 1143.86 222.68 1144.09 223.192H1147.3C1147.62 222.728 1147.86 222.248 1148.02 221.768L1149.64 221.976C1149.48 222.408 1149.24 222.808 1148.95 223.192H1152.13V224.504H1146.41V225.304H1151.4V226.488H1146.41V227.272H1152.47V228.584H1150.1C1149.94 228.984 1149.77 229.368 1149.56 229.736H1152.71V231.08H1138.6V229.736H1141.86C1141.67 229.32 1141.46 228.936 1141.24 228.584H1138.84V227.272H1144.9V226.488H1139.91V225.304H1144.9V224.504H1139.17V223.192ZM1148.07 229.736C1148.29 229.352 1148.47 228.968 1148.63 228.584H1146.41V229.736H1148.07ZM1142.79 228.584C1142.97 228.936 1143.13 229.32 1143.29 229.736H1144.9V228.584H1142.79ZM1151.17 231.944V236.648H1149.67V236.12H1141.67V236.648H1140.15V231.944H1151.17ZM1141.67 234.712H1149.67V233.288H1141.67V234.712ZM1162.1 221.768C1162.36 222.184 1162.6 222.664 1162.84 223.192H1168.52V224.68H1156.79V228.12C1156.74 231.672 1156.23 234.504 1155.24 236.648L1153.97 235.512C1154.79 233.736 1155.22 231.272 1155.25 228.12V223.192H1161.14C1160.92 222.776 1160.66 222.408 1160.41 222.056L1162.1 221.768ZM1160.68 224.904L1162.13 225.24C1162.01 225.608 1161.89 225.96 1161.78 226.296H1167.81V227.624H1161.27C1160.89 228.52 1160.47 229.336 1160.02 230.056H1162.5V228.296H1164.01V230.056H1167.46V231.416H1164.01V232.856H1168.66V234.232H1164.01V236.664H1162.5V234.232H1156.9V232.856H1162.5V231.416H1158.49L1158.17 230.088C1158.69 229.432 1159.19 228.616 1159.64 227.624H1157.49V226.296H1160.2C1160.36 225.848 1160.52 225.384 1160.68 224.904Z" fill="white"/>
<rect x="210.505" y="86" width="427.996" height="34" rx="3" fill="#3F8EF7"/>
<path d="M219.625 97.576H221.369V104.68C221.369 105.704 221.593 106.456 222.073 106.952C222.553 107.448 223.305 107.704 224.345 107.704C225.369 107.704 226.121 107.448 226.601 106.952C227.065 106.456 227.305 105.704 227.305 104.68V97.576H229.049V104.648C229.049 106.136 228.633 107.272 227.817 108.056C227.001 108.824 225.849 109.224 224.345 109.224C222.825 109.224 221.673 108.84 220.873 108.072C220.041 107.272 219.625 106.136 219.625 104.648V97.576ZM231.01 97.576H232.738V109H231.01V97.576ZM236.289 96.12C237.313 96.888 238.161 97.672 238.865 98.44L237.825 99.496C237.217 98.744 236.353 97.944 235.249 97.112L236.289 96.12ZM234.241 100.68H237.825V107.448C238.321 107.032 238.849 106.552 239.425 106.008L239.841 107.608C238.801 108.568 237.697 109.432 236.529 110.184L235.953 108.808C236.209 108.584 236.353 108.296 236.353 107.96V102.136H234.241V100.68ZM239.953 102.584H247.713V103.976C247.249 105.4 246.481 106.616 245.409 107.64C246.433 108.312 247.681 108.92 249.121 109.432L248.305 110.744C246.705 110.104 245.377 109.368 244.289 108.568C243.041 109.464 241.489 110.184 239.665 110.728L238.817 109.448C240.513 108.952 241.937 108.328 243.089 107.56C242.001 106.504 241.249 105.336 240.865 104.056H239.953V102.584ZM242.289 104.056C242.657 105.032 243.281 105.912 244.177 106.712C245.041 105.928 245.713 105.048 246.177 104.056H242.289ZM241.073 96.408H246.737V99.768C246.737 100.12 246.929 100.312 247.329 100.312H248.737V101.704H246.929C245.793 101.704 245.233 101.16 245.233 100.104V97.832H242.577V98.312C242.577 99.976 241.729 101.272 240.049 102.184L239.041 101.016C240.385 100.408 241.073 99.56 241.073 98.472V96.408ZM254.961 100.552H259.153V95.864H260.721V100.552H264.689V102.056H260.721V110.68H259.153V102.056H254.961V100.552ZM252.049 96.008C253.089 96.792 253.969 97.576 254.689 98.376L253.649 99.432C253.009 98.68 252.129 97.88 250.993 97.048L252.049 96.008ZM249.937 100.648H253.633V107.464C254.145 107.048 254.673 106.568 255.233 106.04L255.633 107.592C254.609 108.552 253.505 109.416 252.337 110.168L251.761 108.808C252.033 108.584 252.177 108.312 252.177 107.992V102.104H249.937V100.648Z" fill="white"/>
<rect x="852.999" y="170" width="425.003" height="34" rx="3" fill="#3F8EF7"/>
<path d="M875.287 180.008L876.023 181.352C874.647 181.832 873.127 182.12 871.463 182.232V184.824H876.407V186.28H874.871V194.664H873.383V186.28H871.463V187.896C871.383 190.712 870.759 192.952 869.591 194.632L868.519 193.48C869.431 192.136 869.927 190.28 869.991 187.896V180.984C871.959 180.952 873.719 180.616 875.287 180.008ZM861.927 181.144H864.775C864.583 180.728 864.359 180.328 864.119 179.96L865.687 179.704C865.879 180.136 866.087 180.616 866.279 181.144H869.239V182.552H861.927V181.144ZM861.767 184.776H863.463C863.255 184.216 863.015 183.688 862.743 183.208L864.071 182.712C864.327 183.288 864.583 183.976 864.807 184.776H866.327C866.583 184.104 866.807 183.416 866.999 182.696L868.359 183.176C868.167 183.768 867.943 184.296 867.703 184.776H869.335V186.168H866.375V187.608H869.063V188.984H866.375V193.272C866.375 194.232 865.847 194.712 864.791 194.712H863.959L863.623 193.304C863.863 193.368 864.087 193.4 864.295 193.4C864.679 193.4 864.871 193.24 864.871 192.92V188.984H862.023V187.608H864.871V186.168H861.767V184.776ZM862.983 189.688L864.359 189.976C863.975 191.592 863.447 193 862.743 194.2L861.495 193.4C862.199 192.248 862.695 191 862.983 189.688ZM867.991 189.576C868.407 190.6 868.743 191.528 868.983 192.36L867.703 192.84C867.447 191.848 867.127 190.872 866.743 189.912L867.991 189.576ZM879.655 183H877.479V181.544H883.351V183H881.175V189.896C881.975 189.656 882.759 189.4 883.543 189.112V190.632C881.703 191.288 879.751 191.848 877.671 192.296L877.287 190.76C878.087 190.632 878.871 190.472 879.655 190.296V183ZM886.071 179.928H887.607V183.032H891.623C891.623 188.248 891.543 191.48 891.383 192.712C891.175 193.912 890.247 194.52 888.615 194.52C888.327 194.52 887.815 194.488 887.095 194.44L886.727 193.016C887.367 193.064 887.911 193.096 888.359 193.096C889.287 193.096 889.815 192.728 889.959 192.008C890.055 191.256 890.103 188.76 890.135 184.504H887.607V184.552C887.543 189.192 886.295 192.6 883.863 194.776L882.615 193.672C884.887 191.784 886.039 188.744 886.071 184.552V184.504H883.655V183.032H886.071V179.928ZM895.463 189.256V190.424H898.759V189.256H895.463ZM898.759 188.008V186.776H895.463V188.008H898.759ZM895.463 191.688V194.68H893.991V185.448H900.231V192.904C900.231 194.008 899.703 194.568 898.679 194.568H897.431L897.063 193.144L898.199 193.208C898.567 193.208 898.759 193 898.759 192.584V191.688H895.463ZM905.687 186.968H903.079C901.959 186.968 901.415 186.36 901.415 185.144V179.944H902.919V181.832C904.567 181.576 905.911 181.32 906.951 181.032L907.447 182.376C906.135 182.68 904.631 182.968 902.919 183.224V184.824C902.919 185.336 903.111 185.608 903.495 185.608H905.399C905.655 185.608 905.831 185.528 905.943 185.368C906.071 185.176 906.167 184.632 906.199 183.736L907.623 184.2C907.495 185.528 907.271 186.328 906.983 186.6C906.695 186.84 906.263 186.968 905.687 186.968ZM902.919 190.664V192.616C902.919 192.904 903.095 193.048 903.479 193.048H905.415C905.671 193.048 905.863 192.968 905.975 192.824C906.103 192.632 906.199 192.088 906.247 191.192L907.623 191.64C907.495 192.984 907.287 193.784 906.999 194.04C906.727 194.28 906.295 194.408 905.703 194.408H903.047C901.959 194.408 901.415 193.912 901.415 192.952V187.528H902.919V189.288C904.423 189.128 905.767 188.856 906.951 188.504L907.447 189.864C906.039 190.248 904.519 190.504 902.919 190.664ZM899.079 181C900.023 182.264 900.743 183.368 901.255 184.296L900.007 185.192C899.847 184.872 899.671 184.536 899.479 184.2C897.815 184.456 895.815 184.648 893.479 184.776L893.063 183.512C893.335 183.416 893.559 183.288 893.751 183.128C894.727 182.04 895.479 180.952 895.991 179.864L897.447 180.296C896.775 181.608 896.023 182.648 895.191 183.448C896.311 183.384 897.527 183.256 898.823 183.096C898.535 182.648 898.231 182.2 897.911 181.736L899.079 181Z" fill="white"/>
</svg>
